<svg xmlns="http://www.w3.org/2000/svg" viewBox="0 0 1748 1613" width="1748" height="1613">
	<style>
		tspan { white-space:pre }
		.shp0 { fill: #158cba } 
	</style>
	<g id="Layer">
		<path id="Layer" class="shp0" d="M538.7 27.9C492.1 43.2 453.8 55.9 453.6 56.1C452.2 57.8 400.8 126.6 382.9 151C302.9 259.5 252 333.6 238.8 360.5C234.9 368.4 234.9 368.6 235.5 376.7C236.3 387.3 238.3 394.9 242.2 402.3C250.5 417.7 266 425.6 282.9 422.9C295.3 421 297.8 419.1 326.4 389.5C414.5 298.7 660.5 41.7 660.5 40.6C660.5 40 653.1 30.6 644 19.8C632.8 6.4 626.9 0.1 625.5 0.1C624.4 0.1 585.3 12.6 538.7 27.9Z" />
		<path id="Layer" class="shp0" d="M695.1 59.7C691.3 65.6 683.9 77 678.7 85C673.5 93 669.5 99.8 669.9 100.2C670.6 101 1197.7 319 1198.8 319C1199.2 319 1206.1 306.9 1214.2 292.2C1224 274.4 1228.5 265.3 1227.7 264.8C1227 264.5 1108.8 215.9 965 157C821.2 98 703.2 49.6 702.8 49.4C702.4 49.1 698.9 53.8 695.1 59.7Z" />
		<path id="Layer" class="shp0" d="M579.8 187.5C565 204.2 553 218.3 553 218.7C553.1 219.1 656.6 289.4 783.2 374.7L1013.3 530L1104.4 530L1195.5 530L1192.5 527.1C1190.8 525.6 1162.2 500.4 1128.8 471.2L1068.2 418.1L839 287.9C712.9 216.3 609 157.6 608.1 157.4C607 157.1 597.9 166.8 579.8 187.5Z" />
		<path id="Layer" class="shp0" d="M1527.5 170.4C1502.5 176.3 1485 197.5 1485 222L1485 228.7L1427.3 261.5C1395.5 279.6 1368.3 295.1 1366.9 295.9C1364.4 297.3 1364.1 297.2 1358.4 292.5C1351.6 287 1339 280.7 1331.2 279.1C1324.4 277.7 1308.7 277.7 1301.8 279.1C1298.9 279.7 1292.3 282.2 1287.2 284.6C1271.1 292.3 1258.9 307.1 1253.4 325.5C1251.6 331.2 1251.5 343.1 1251.3 568.2L1251 805L1209.5 805L1168 805L1168 832.5L1168 860L1322.5 860L1477 860L1477 832.5L1477 805L1429.5 805L1382 805L1382.2 578.3L1382.5 351.6L1449 312.7L1515.5 273.9L1522.7 276C1531.1 278.5 1543.9 278.9 1552.1 277C1561.7 274.8 1570 270.1 1577.6 262.5C1595.1 245.1 1599 220 1587.4 198C1583.4 190.4 1574.9 181.2 1568.2 177.2C1556.3 170.3 1539.9 167.5 1527.5 170.4Z" />
		<path id="Layer" fill-rule="evenodd" class="shp0" d="M246 468L309 468L309 578.6L315.9 583.4C346.5 604.3 355 646.9 334.6 677.2L331.1 682.3L334.8 688C336.8 691.2 344 702.2 350.8 712.6C370.8 743.3 403.7 793.7 410.8 804.8C414.5 810.4 424.5 825.9 433.1 839.2L448.8 863.2L454.1 865C457.1 866 460.5 868 461.7 869.4C464.5 872.6 466.1 878.3 465.3 882.1C465 883.9 465.2 885 465.9 885C468.3 885 466.6 898.9 462 916.5C458 931.7 449.3 951.6 440.7 965.5C429.3 983.8 409.3 1005.8 393.2 1017.5C383.8 1024.3 370 1033 368.5 1032.9C367.7 1032.9 359.8 1020.6 358.3 1017C358.1 1016.7 359.8 1015.6 362 1014.6C364.2 1013.5 366.5 1012.1 367 1011.5C367.8 1010.6 363.2 1003.9 351 987.9C301 922.2 280.2 894.8 279.6 894.3C279.4 894.1 268 908.7 254.3 926.7C240.5 944.7 220.5 971.1 209.7 985.2L190.1 1011L195.1 1013.7C197.8 1015.3 200 1016.9 200 1017.4C200 1018.8 190.8 1033 189.9 1033C188.4 1033 173 1023.1 164.5 1016.6C132 992 107.2 955.3 96.9 917C93.9 905.8 92 895.1 92 889.7C92 885.9 92.3 885 93.8 885C95.2 885 95.5 884.3 95.2 881.2C94.5 874 100 866.3 107 864.5C109 864 116.3 853.4 141.5 814.7C159.1 787.6 181.1 753.8 190.4 739.5C213.3 704.3 215 701.6 220.4 693.2L225.1 685.9L221.6 681C207.7 661.6 204.4 637.3 212.7 615C215.8 606.7 220.1 600 227 592.6C232.3 586.9 242.8 579 244.9 579C245.7 579 246 561.8 246 523.5L246 468ZM267.5 618.3C249.9 626.7 248.1 649.8 264.3 660.7C278.6 670.3 297.6 662.2 301.2 644.8C303.3 634.9 298.6 624.8 289.5 619.4C282.8 615.5 274.2 615.1 267.5 618.3ZM312 699C311.7 699.1 310.7 699.7 309.8 700.4C308.4 701.5 308 703.3 308 709.4L308 717L246.1 717L245.8 709.3L245.5 701.5L237.1 714.5C232.5 721.7 225.5 732.4 221.6 738.5C217.7 744.5 202 768.6 186.8 792C171.6 815.4 155.6 839.9 151.4 846.5C147.1 853.1 139.6 864.5 134.8 871.7L126.1 885L233 885L231.9 882.2C231.3 880.7 230.8 875 230.8 869.5C230.7 858.1 232.7 851.4 238.7 842.2C249.5 825.9 271.8 817.4 290.6 822.4C304.5 826.1 318.4 838 323.4 850.5C327.6 861.1 328.5 873.7 325.5 882.9L324.9 885L433.1 885L432 882.9C431.3 881.8 425.8 873.1 419.6 863.7C405.6 842.3 402.7 837.7 385.3 811C377.7 799.2 367.1 783 361.9 775C348.3 754.2 338.1 738.5 324.5 717.5C317.9 707.3 312.3 699 312 699ZM273.2 857C269.8 858.5 268.5 859.9 266.9 863.5C265.1 867.5 265 868.6 266.1 871.8C268.3 878.8 274.7 882.9 281.2 881.6C294.5 878.9 295.6 860.9 282.7 856.1C278.9 854.6 278.2 854.7 273.2 857Z" />
		<path id="Layer" class="shp0" d="M1416 643L1416 757L1582 757L1748 757L1748 643L1748 529L1582 529L1416 529L1416 643Z" />
		<path id="Layer" class="shp0" d="M1085 632.8L1085 679.6L1105.1 718.3L1125.2 757L1166.1 757L1207 757L1207 671.5L1207 586L1146 586L1085 586L1085 632.8Z" />
		<path id="Layer" fill-rule="evenodd" class="shp0" d="M1169.5 915L1477.5 915L1665 1102.5L1665 1185L1702 1185L1702 1453L1734.9 1453L1735.7 1456.7C1737 1463.1 1736.3 1482 1734.5 1490.5C1730.7 1508.2 1721.2 1525.5 1708.3 1538.3C1699.9 1546.6 1693.8 1551 1683.8 1556.1L1676 1560L1676 1613L1617 1613L1616.8 1588.5L1616.5 1563.9L1608.4 1561.1C1567 1546.8 1540.8 1506 1544.5 1461.7L1545.2 1453L1580 1453L1580 1309L1067 1309L1067 1453L1101.9 1453L1102.4 1456.2C1105.3 1475.4 1102.8 1492.8 1094.4 1510.9C1088.9 1522.6 1083.2 1530.6 1073.9 1539.6C1062.8 1550.2 1052.1 1556.7 1038 1561.5L1031.5 1563.7L1031.2 1588.3L1031 1613L971 1613L971 1559.2L968.7 1558.6C964.8 1557.7 950.3 1548.4 943.8 1542.8C930.5 1531.3 918.3 1511.5 914 1494.5C911.5 1484.8 910.5 1471.1 911.4 1460.7L912.2 1453L945 1453L945 1185L983 1185L983 1101.5L1169.5 915ZM1499 1053L1166 1053L1166 1157L1499 1157L1499 1053Z" />
	</g>
</svg>