<?xml version="1.0" standalone="no"?>
<!DOCTYPE svg PUBLIC "-//W3C//DTD SVG 20010904//EN"
 "http://www.w3.org/TR/2001/REC-SVG-20010904/DTD/svg10.dtd">
<svg version="1.0" xmlns="http://www.w3.org/2000/svg"
 width="1748.000000pt" height="1613.000000pt" viewBox="0 0 1748.000000 1613.000000"
 preserveAspectRatio="xMidYMid meet">
<metadata>
Created by potrace 1.16, written by Peter Selinger 2001-2019
</metadata>
<g transform="translate(0.000000,1613.000000) scale(0.100000,-0.100000)"
fill="#000000" stroke="none">
<path d="M5387 15851 c-466 -153 -849 -280 -851 -282 -14 -17 -528 -705 -707
-949 -800 -1085 -1309 -1826 -1441 -2095 -39 -79 -39 -81 -33 -162 8 -106 28
-182 67 -256 83 -154 238 -233 407 -206 124 19 149 38 435 334 881 908 3341
3478 3341 3489 0 6 -74 100 -165 208 -112 134 -171 197 -185 197 -11 0 -402
-125 -868 -278z"/>
<path d="M6951 15533 c-38 -59 -112 -173 -164 -253 -52 -80 -92 -148 -88 -152
7 -8 5278 -2188 5289 -2188 4 0 73 121 154 268 98 178 143 269 135 274 -7 3
-1189 489 -2627 1078 -1438 590 -2618 1074 -2622 1076 -4 3 -39 -44 -77 -103z"/>
<path d="M5798 14255 c-148 -167 -268 -308 -268 -312 1 -4 1036 -707 2302
-1560 l2301 -1553 911 0 911 0 -30 29 c-17 15 -303 267 -637 559 l-606 531
-2292 1302 c-1261 716 -2300 1303 -2309 1305 -11 3 -102 -94 -283 -301z"/>
<path d="M15275 14426 c-250 -59 -425 -271 -425 -516 l0 -67 -577 -328 c-318
-181 -590 -336 -604 -344 -25 -14 -28 -13 -85 34 -68 55 -194 118 -272 134
-68 14 -225 14 -294 0 -29 -6 -95 -31 -146 -55 -161 -77 -283 -225 -338 -409
-18 -57 -19 -176 -21 -2427 l-3 -2368 -415 0 -415 0 0 -275 0 -275 1545 0
1545 0 0 275 0 275 -475 0 -475 0 2 2267 3 2267 665 389 665 388 72 -21 c84
-25 212 -29 294 -10 96 22 179 69 255 145 175 174 214 425 98 645 -40 76 -125
168 -192 208 -119 69 -283 97 -407 68z"/>
<path d="M2460 10895 c0 -383 -3 -555 -11 -555 -21 0 -126 -79 -179 -136 -69
-74 -112 -141 -143 -224 -83 -223 -50 -466 89 -660 l35 -49 -47 -73 c-54 -84
-71 -111 -300 -463 -93 -143 -313 -481 -489 -752 -252 -387 -325 -493 -345
-498 -70 -18 -125 -95 -118 -167 3 -31 0 -38 -14 -38 -15 0 -18 -9 -18 -47 0
-54 19 -161 49 -273 103 -383 351 -750 676 -996 85 -65 239 -164 254 -164 9 0
101 142 101 156 0 5 -22 21 -49 37 l-50 27 196 258 c108 141 308 405 446 585
137 180 251 326 253 324 6 -5 214 -279 714 -936 122 -160 168 -227 160 -236
-5 -6 -28 -20 -50 -31 -22 -10 -39 -21 -37 -24 15 -36 94 -159 102 -159 15 -1
153 86 247 154 161 117 361 337 475 520 86 139 173 338 213 490 46 176 63 315
39 315 -7 0 -9 11 -6 29 8 38 -8 95 -36 127 -12 14 -46 34 -76 44 l-53 18
-157 240 c-86 133 -186 288 -223 344 -71 111 -400 615 -600 922 -68 104 -140
214 -160 246 l-37 57 35 51 c204 303 119 729 -187 938 l-69 48 0 553 0 553
-315 0 -315 0 0 -555z m435 -959 c91 -54 138 -155 117 -254 -36 -174 -226
-255 -369 -159 -162 109 -144 340 32 424 67 32 153 28 220 -11z m350 -981
c136 -210 238 -367 374 -575 52 -80 158 -242 234 -360 174 -267 203 -313 343
-527 62 -94 117 -181 124 -192 l11 -21 -541 0 -541 0 6 21 c30 92 21 218 -21
324 -50 125 -189 244 -328 281 -188 50 -411 -35 -519 -198 -60 -92 -80 -159
-79 -273 0 -55 5 -112 11 -127 l11 -28 -535 0 -534 0 87 133 c48 72 123 186
166 252 42 66 202 311 354 545 152 234 309 475 348 535 39 61 109 168 155 240
l84 130 3 -78 3 -77 309 0 310 0 0 76 c0 61 4 79 18 90 9 7 19 13 22 14 3 0
59 -83 125 -185z m-418 -1386 c129 -48 118 -228 -15 -255 -65 -13 -129 28
-151 98 -11 32 -10 43 8 83 16 36 29 50 63 65 50 23 57 24 95 9z"/>
<path d="M14160 9700 l0 -1140 1660 0 1660 0 0 1140 0 1140 -1660 0 -1660 0 0
-1140z"/>
<path d="M10850 9802 l0 -468 201 -387 201 -387 409 0 409 0 0 855 0 855 -610
0 -610 0 0 -468z"/>
<path d="M10762 6047 l-932 -932 0 -418 0 -417 -190 0 -190 0 0 -1340 0 -1340
-164 0 -164 0 -8 -77 c-9 -104 1 -241 26 -338 43 -170 165 -368 298 -483 65
-56 210 -149 249 -158 l23 -6 0 -269 0 -269 300 0 300 0 2 247 3 246 65 22
c141 48 248 113 359 219 93 90 150 170 205 287 84 181 109 355 80 547 l-5 32
-174 0 -175 0 0 720 0 720 2565 0 2565 0 0 -720 0 -720 -174 0 -174 0 -7 -87
c-37 -443 225 -851 639 -994 l81 -28 3 -246 2 -245 295 0 295 0 0 265 0 265
78 39 c100 51 161 95 245 178 129 128 224 301 262 478 18 85 25 274 12 338
l-8 37 -164 0 -165 0 0 1340 0 1340 -185 0 -185 0 0 413 0 412 -938 938 -937
937 -1540 0 -1540 0 -933 -933z m4228 -967 l0 -520 -1665 0 -1665 0 0 520 0
520 1665 0 1665 0 0 -520z"/>
</g>
</svg>
