<?xml version="1.0" standalone="no"?>
<!DOCTYPE svg PUBLIC "-//W3C//DTD SVG 20010904//EN"
 "http://www.w3.org/TR/2001/REC-SVG-20010904/DTD/svg10.dtd">
<svg version="1.0" xmlns="http://www.w3.org/2000/svg"
 width="458.000000pt" height="359.000000pt" viewBox="0 0 458.000000 359.000000"
 preserveAspectRatio="xMidYMid meet">
<metadata>
Created by potrace 1.16, written by Peter Selinger 2001-2019
</metadata>
<g transform="translate(0.000000,359.000000) scale(0.100000,-0.100000)"
fill="#000000" stroke="none">
<path d="M1457 3073 c-12 -11 -8 -36 10 -55 15 -17 15 -18 -15 -18 l-31 0 6
-53 c5 -48 3 -56 -21 -80 -26 -26 -35 -70 -16 -82 6 -3 10 -10 10 -14 0 -16
-154 -196 -167 -195 -8 1 -13 -8 -13 -24 0 -33 62 -107 111 -132 36 -19 43
-18 40 2 0 4 25 36 58 70 l58 62 64 -58 c35 -31 64 -61 64 -66 0 -40 91 27
121 90 20 41 22 70 4 70 -4 0 -46 39 -94 88 -85 86 -86 87 -80 128 5 36 2 44
-19 60 -18 15 -26 33 -31 78 -4 32 -4 56 1 53 4 -2 85 -47 179 -100 181 -101
700 -462 780 -544 31 -31 51 -65 73 -126 17 -46 31 -91 31 -101 0 -9 8 -36 19
-59 10 -23 33 -87 52 -142 49 -149 51 -156 64 -169 22 -21 116 -194 141 -259
14 -34 37 -105 51 -157 24 -90 26 -111 29 -391 l5 -297 -34 17 c-26 12 -45 37
-83 105 -87 158 -82 141 -45 180 47 48 40 71 -23 71 l-48 0 4 82 c4 75 3 83
-16 93 -14 7 -78 10 -181 8 l-160 -3 -3 -30 c-6 -64 -32 -124 -55 -127 -20 -3
-22 -9 -25 -82 -2 -58 1 -84 13 -102 8 -13 15 -32 15 -42 0 -24 64 -32 271
-32 l147 0 60 -108 c33 -59 61 -116 63 -127 3 -16 13 -21 47 -23 54 -4 55 -22
2 -22 -44 0 -53 -11 -65 -82 -5 -32 -10 -38 -30 -38 -42 0 -55 -10 -55 -45 0
-41 10 -45 105 -45 51 0 85 -6 109 -18 50 -24 46 -42 -9 -42 -38 0 -45 3 -45
20 0 19 -7 20 -127 20 -71 0 -133 -4 -138 -8 -9 -6 -35 -148 -35 -190 0 -20
40 -14 41 6 1 9 5 -1 10 -23 7 -27 6 -41 -1 -43 -5 -2 -10 -8 -10 -13 0 -5 27
-9 60 -9 54 0 75 10 51 24 -16 10 0 46 20 46 11 0 19 -5 19 -10 0 -6 11 -22
25 -35 20 -21 34 -25 84 -25 54 0 62 3 85 31 14 17 26 37 26 46 0 13 10 14 68
8 37 -4 119 -9 182 -10 84 -2 115 -6 119 -16 2 -7 14 -23 27 -36 19 -19 34
-23 83 -23 57 0 62 2 88 35 15 19 33 35 40 35 16 0 29 -43 14 -48 -6 -2 -11
-8 -11 -13 0 -5 29 -9 65 -9 37 0 65 4 65 10 0 6 -5 10 -11 10 -22 0 -4 44 21
50 27 7 27 3 12 132 -8 63 -7 67 12 70 19 3 21 10 21 73 -1 39 -4 96 -9 128
l-7 57 -50 0 c-43 0 -51 3 -58 23 -9 23 -12 23 -113 19 -56 -2 -104 -8 -106
-13 -2 -5 -46 -9 -98 -9 -52 0 -94 -3 -94 -7 0 -5 -32 -6 -71 -5 l-71 4 6 51
c3 29 6 61 7 72 4 95 22 202 36 217 12 14 13 21 4 32 -7 8 -16 84 -22 182 -5
95 -19 206 -30 252 -20 87 -69 219 -94 255 -10 14 -11 24 -5 33 7 8 3 16 -13
27 -23 15 -137 208 -137 231 0 5 -9 19 -19 30 -10 12 -42 66 -70 121 -28 55
-55 105 -60 111 -5 6 -23 36 -39 65 -27 50 -29 59 -22 114 8 66 -4 99 -54 143
-14 12 -26 29 -26 38 0 12 -6 15 -21 11 -23 -6 -93 34 -117 65 -7 10 -19 18
-26 18 -19 0 -153 88 -160 105 -3 8 -12 15 -21 15 -20 0 -152 88 -159 106 -3
8 -13 14 -21 14 -22 0 -105 58 -105 73 0 8 -55 32 -127 57 -71 24 -137 49
-149 57 -11 7 -42 12 -70 12 -27 0 -69 6 -93 15 -49 18 -55 19 -64 9z m236
-500 c-5 -1 -38 -3 -75 -6 -61 -4 -68 -3 -68 14 0 21 -36 49 -65 49 -29 0 -65
-28 -65 -49 0 -16 -11 -19 -72 -24 -40 -3 -74 -4 -75 -3 0 0 33 43 74 94 l76
92 48 0 c32 0 49 4 49 13 1 6 41 -31 91 -83 49 -52 86 -96 82 -97z"/>
</g>
</svg>
