<?xml version="1.0" standalone="no"?>
<!DOCTYPE svg PUBLIC "-//W3C//DTD SVG 20010904//EN"
 "http://www.w3.org/TR/2001/REC-SVG-20010904/DTD/svg10.dtd">
<svg version="1.0" xmlns="http://www.w3.org/2000/svg"
 width="588.000000pt" height="384.000000pt" viewBox="0 0 588.000000 384.000000"
 preserveAspectRatio="xMidYMid meet">
<metadata>
Created by potrace 1.16, written by Peter Selinger 2001-2019
</metadata>
<g transform="translate(0.000000,384.000000) scale(0.100000,-0.100000)"
fill="#000000" stroke="none">
<path d="M1130 2995 l0 -845 -165 0 -165 0 0 138 c0 75 -4 163 -10 195 -28
170 -148 296 -317 332 -37 8 -71 15 -74 15 -9 0 -21 -244 -14 -273 4 -14 16
-28 28 -31 12 -3 35 -17 50 -31 28 -25 28 -26 34 -178 l6 -154 -169 -6 c-199
-8 -234 -20 -296 -103 l-38 -49 0 -282 0 -283 223 -1 c122 0 294 -4 382 -8
141 -7 170 -11 247 -38 233 -81 402 -232 507 -454 61 -126 75 -193 76 -339 0
-69 -4 -151 -9 -182 l-8 -58 437 0 437 0 -6 23 c-49 167 -50 171 -50 327 0
131 3 168 23 240 28 105 96 252 155 334 57 79 185 203 260 251 202 129 446
186 674 158 l72 -9 0 45 c-2 151 -10 174 -145 427 -70 132 -132 245 -137 252
-7 7 -37 12 -84 12 l-73 0 -15 53 c-9 28 -76 273 -151 542 -74 270 -138 498
-141 508 -5 15 2 17 58 17 95 0 100 7 60 84 -40 78 -103 138 -180 174 -79 36
-167 40 -884 41 l-598 1 0 -845z m1289 333 c35 -123 110 -394 167 -602 l104
-380 0 -248 0 -248 -312 0 -313 0 -133 155 -132 155 -192 0 -191 0 6 467 c4
256 7 567 7 689 l0 223 113 4 c61 1 270 4 463 5 l350 2 63 -222z m-409 -1908
l0 -130 -240 0 -240 0 0 108 c0 59 3 117 6 130 l6 22 234 0 234 0 0 -130z"/>
<path d="M3600 3612 l0 -229 110 -172 110 -173 0 -777 0 -777 75 -74 c255
-253 338 -542 268 -938 l-5 -32 582 0 582 0 279 91 279 90 0 90 0 89 -725 0
-725 0 0 650 0 650 -125 0 -125 0 0 870 0 870 -290 0 -290 0 0 -228z"/>
<path d="M3065 1423 c-46 -9 -164 -54 -206 -77 -151 -85 -284 -254 -338 -430
-27 -86 -30 -289 -6 -381 52 -200 190 -367 381 -461 175 -86 353 -97 556 -34
134 42 276 154 362 287 149 231 146 561 -5 788 -99 148 -269 266 -434 300 -64
13 -262 19 -310 8z m265 -425 c58 -24 124 -89 158 -153 37 -69 37 -177 2 -250
-96 -197 -330 -244 -490 -99 -95 86 -124 240 -67 351 79 154 245 217 397 151z"/>
<path d="M453 1155 c-104 -23 -189 -71 -273 -155 -122 -121 -170 -237 -170
-412 0 -112 18 -187 68 -282 95 -183 301 -305 514 -306 95 0 160 16 258 62
225 108 355 354 322 608 -30 226 -223 440 -439 485 -84 18 -198 18 -280 0z
m232 -359 c89 -41 135 -114 135 -214 0 -169 -178 -278 -330 -201 -132 66 -170
231 -81 345 70 89 178 116 276 70z"/>
</g>
</svg>
