<?xml version="1.0" standalone="no"?>
<!DOCTYPE svg PUBLIC "-//W3C//DTD SVG 20010904//EN"
 "http://www.w3.org/TR/2001/REC-SVG-20010904/DTD/svg10.dtd">
<svg version="1.0" xmlns="http://www.w3.org/2000/svg"
 width="439.000000pt" height="178.000000pt" viewBox="0 0 439.000000 178.000000"
 preserveAspectRatio="xMidYMid meet">
<metadata>
Created by potrace 1.16, written by Peter Selinger 2001-2019
</metadata>
<g transform="translate(0.000000,178.000000) scale(0.100000,-0.100000)"
fill="#000000" stroke="none">
<path d="M3480 1356 c-305 -150 -711 -350 -903 -444 -191 -94 -346 -168 -344
-164 3 4 83 145 180 313 97 168 179 313 183 322 6 16 -90 17 -1295 17 l-1302
0 12 -22 c7 -13 144 -251 306 -529 l293 -507 -40 -40 -40 -40 0 -84 c0 -103
22 -145 84 -166 31 -10 240 -12 980 -10 865 3 944 4 972 20 44 24 64 72 64
155 0 76 -22 125 -65 145 -14 6 -25 14 -25 17 0 3 412 215 916 471 503 256
921 468 927 472 13 8 -319 349 -338 347 -5 0 -260 -123 -565 -273z m589 60
c29 -16 51 -53 51 -89 0 -62 3 -60 -859 -478 -454 -219 -835 -399 -847 -399
-40 0 -73 18 -89 49 -20 40 -19 84 3 110 9 11 382 197 827 412 446 215 814
395 820 400 14 14 63 11 94 -5z m-2679 -162 l835 -7 27 -29 c19 -21 28 -41 28
-64 0 -44 -328 -705 -362 -728 -19 -14 -69 -16 -378 -15 -503 1 -728 10 -761
32 -28 18 -376 641 -393 703 -21 74 33 128 119 119 28 -2 426 -7 885 -11z
m1001 -985 c62 -24 77 -109 28 -158 l-31 -31 -496 0 c-273 0 -643 3 -820 7
l-324 6 -29 29 c-45 46 -32 128 25 157 27 14 1609 4 1647 -10z"/>
<path d="M660 1052 c0 -2 53 -101 117 -218 l118 -214 130 0 c71 0 274 -3 450
-6 l320 -7 108 218 c59 119 107 218 105 220 -5 5 -1348 12 -1348 7z"/>
</g>
</svg>
