<svg xmlns="http://www.w3.org/2000/svg" viewBox="0 0 439 178" width="439" height="178">
	<style>
		tspan { white-space:pre }
		.shp0 { fill: #158cba } 
	</style>
	<g id="Layer">
		<path id="Layer" fill-rule="evenodd" class="shp0" d="M404.5 15.1C406.4 14.9 439.6 49 438.3 49.8C437.7 50.2 395.9 71.4 345.6 97C295.2 122.6 254 143.8 254 144.1C254 144.4 255.1 145.2 256.5 145.8C260.8 147.8 263 152.7 263 160.3C263 168.6 261 173.4 256.6 175.8C253.8 177.4 245.9 177.5 159.4 177.8C85.4 178 64.5 177.8 61.4 176.8C55.2 174.7 53 170.5 53 160.2L53 151.8L61 143.8L31.7 93.1C15.5 65.3 1.8 41.5 1.1 40.2L-0.1 38L130.1 38C250.6 38 260.2 38.1 259.6 39.7C259.2 40.6 251 55.1 241.3 71.9C231.6 88.7 223.6 102.8 223.3 103.2C223.1 103.6 238.6 96.2 257.7 86.8C276.9 77.4 317.5 57.4 348 42.4C378.5 27.4 404 15.1 404.5 15.1ZM397.5 35.9C396.9 36.4 360.1 54.4 315.5 75.9C271 97.4 233.7 116 232.8 117.1C230.6 119.7 230.5 124.1 232.5 128.1C234.1 131.2 237.4 133 241.4 133C242.6 133 280.7 115 326.1 93.1C412.3 51.3 412 51.5 412 45.3C412 41.7 409.8 38 406.9 36.4C403.8 34.8 398.9 34.5 397.5 35.9ZM50.5 51.5C41.9 50.6 36.5 56 38.6 63.4C40.3 69.6 75.1 131.9 77.9 133.7C81.2 135.9 103.7 136.8 154 136.9C184.9 137 189.9 136.8 191.8 135.4C195.2 133.1 228 67 228 62.6C228 60.3 227.1 58.3 225.2 56.2L222.5 53.3L139 52.6C93.1 52.2 53.3 51.7 50.5 51.5ZM74.4 150.1C68.7 153 67.4 161.2 71.9 165.8L74.8 168.7L107.2 169.3C124.9 169.7 161.9 170 189.2 170L238.8 170L241.9 166.9C246.8 162 245.3 153.5 239.1 151.1C235.3 149.7 77.1 148.7 74.4 150.1Z" />
		<path id="Layer" class="shp0" d="M66 72.8C66 73 71.3 82.9 77.7 94.6L89.5 116L102.5 116C109.6 116 129.9 116.3 147.5 116.6L179.5 117.3L190.3 95.5C196.2 83.6 201 73.7 200.8 73.5C200.3 73 66 72.3 66 72.8Z" />
	</g>
</svg>