<?xml version="1.0" standalone="no"?>
<!DOCTYPE svg PUBLIC "-//W3C//DTD SVG 20010904//EN"
 "http://www.w3.org/TR/2001/REC-SVG-20010904/DTD/svg10.dtd">
<svg version="1.0" xmlns="http://www.w3.org/2000/svg"
 width="545.000000pt" height="323.000000pt" viewBox="0 0 545.000000 323.000000"
 preserveAspectRatio="xMidYMid meet">
<metadata>
Created by potrace 1.16, written by Peter Selinger 2001-2019
</metadata>
<g transform="translate(0.000000,323.000000) scale(0.100000,-0.100000)"
fill="#000000" stroke="none">
<path d="M1058 3225 c-5 -5 -8 -217 -8 -472 l0 -463 -24 0 c-12 0 -50 -3 -83
-6 l-61 -7 -4 169 c-3 163 -5 171 -33 228 -16 32 -47 73 -69 92 -44 38 -131
74 -176 74 l-30 0 0 -109 c0 -100 2 -110 20 -116 11 -3 29 -18 40 -32 18 -23
20 -40 20 -164 l0 -139 -184 0 c-174 0 -185 -1 -217 -23 -66 -44 -75 -70 -82
-229 -4 -78 -7 -257 -7 -395 l0 -253 -80 0 -80 0 2 -181 3 -181 168 -50 c93
-28 170 -48 173 -45 2 2 14 37 25 77 77 278 294 524 555 628 124 50 190 64
324 69 195 8 366 -36 537 -139 140 -83 303 -277 372 -442 37 -89 71 -214 71
-261 0 -18 3 -47 6 -64 l7 -31 166 0 c91 0 171 4 177 8 6 4 15 32 19 62 11 94
43 217 75 292 37 87 124 219 179 273 l41 39 0 261 0 260 -163 163 -162 162
-81 0 -81 0 -97 353 c-53 193 -97 355 -96 360 0 4 19 7 43 7 63 0 73 10 52 51
-30 60 -81 114 -133 142 l-51 28 -533 6 c-293 3 -536 2 -540 -2z m924 -242 c3
-10 47 -168 98 -351 51 -183 89 -336 86 -340 -4 -4 -96 -8 -204 -10 l-197 -2
-103 120 -103 120 -145 0 -144 0 0 240 0 240 354 0 c328 0 354 -1 358 -17z
m-1132 -1017 c0 -89 -1 -94 -22 -100 -13 -3 -105 -6 -205 -6 l-183 0 0 100 0
100 205 0 205 0 0 -94z m1787 -128 c77 -72 19 -208 -89 -208 -25 0 -46 10 -76
36 -36 31 -42 41 -42 75 0 116 125 174 207 97z"/>
<path d="M3104 1945 c-8 -32 -1 -331 8 -340 3 -4 46 9 95 28 181 72 379 88
555 43 103 -26 212 -70 276 -110 23 -14 44 -26 47 -26 17 0 -9 47 -125 220
l-130 195 -107 6 c-60 4 -222 7 -360 8 l-253 1 -6 -25z"/>
<path d="M1182 1500 c-296 -41 -544 -258 -623 -545 -18 -66 -20 -98 -17 -228
3 -134 7 -161 30 -225 84 -233 278 -412 518 -478 90 -25 300 -25 390 -1 210
57 392 208 485 402 51 105 68 190 69 335 0 103 -4 138 -23 200 -67 219 -215
390 -417 481 -116 53 -283 76 -412 59z m266 -430 c76 -41 125 -93 164 -176 27
-59 30 -72 26 -152 -4 -102 -25 -154 -93 -230 -170 -189 -461 -144 -581 90
-39 75 -45 190 -15 270 59 155 190 242 356 235 68 -3 90 -8 143 -37z"/>
<path d="M3340 1477 c-130 -40 -215 -92 -315 -192 -102 -102 -144 -167 -188
-292 -30 -83 -32 -97 -32 -233 0 -124 3 -156 23 -220 66 -210 199 -368 387
-461 107 -52 179 -70 306 -76 229 -11 426 70 587 242 192 206 250 506 149 774
-41 109 -93 188 -182 276 -84 83 -170 136 -280 172 -69 23 -100 27 -230 30
-134 3 -158 0 -225 -20z m360 -399 c71 -35 139 -103 176 -176 25 -50 29 -68
29 -147 0 -77 -4 -98 -27 -147 -33 -71 -112 -152 -176 -181 -33 -14 -74 -22
-139 -25 -82 -4 -97 -2 -147 21 -157 72 -249 243 -216 401 23 110 127 230 233
268 78 28 195 21 267 -14z"/>
<path d="M4612 1247 l-112 -112 0 -425 0 -425 108 -108 107 -107 368 0 c202 0
367 3 367 8 -1 4 -16 45 -34 92 l-33 85 -50 3 -50 3 -188 507 c-103 279 -196
523 -206 543 -20 40 -40 49 -114 49 l-50 0 -113 -113z"/>
</g>
</svg>
