<svg version="1.2" xmlns="http://www.w3.org/2000/svg" viewBox="0 0 569 378" width="569" height="378">
	<title>noun-leave-565717-svg</title>
	<style>
		.s0 { fill: #000000 } 
	</style>
	<g id="Layer">
		<path id="Layer" class="s0" d="m324.3 368.6h-306.9c0-75 73.4-136.1 164.6-136.1 10.1 0 19.6 0.6 29.2 2.3v96.8h111.4v24.7c0 4.5 0.6 8.9 1.7 12.3z"/>
		<path id="Layer" class="s0" d="m285.6 108.8c0 54.7-44.3 99.1-99.1 99.1-54.7 0-99.1-44.4-99.1-99.1 0-54.8 44.4-99.2 99.1-99.2 54.8 0 99.1 44.4 99.1 99.2z"/>
		<path id="Layer" class="s0" d="m347.2 356.8v-49.8h-111.4v-62.7h112v-49.9c0-8.4 3.4-12.8 7.8-12.8 2.8 0 6.2 2.2 10.1 5.6l75.1 71.6c10 9.6 10 24.7 0 34.2l-75.6 71.1q-5.9 5.1-10.1 5.1c-4.5 0-7.9-4.5-7.9-12.4z"/>
		<g id="v">
			<path id="Layer" class="s0" d="m-42.2 557.9q-1.5 0.7-3.1 1.1-1.5 0.4-3.2 0.4-5.1 0-8.1-2.9-3-2.8-3-7.7 0-4.9 3-7.7 3-2.9 8.1-2.9 1.7 0 3.2 0.4 1.6 0.4 3.1 1.1v4.3q-1.5-1-2.9-1.5-1.4-0.5-3-0.5-2.8 0-4.4 1.8-1.7 1.8-1.7 5 0 3.2 1.7 5 1.6 1.8 4.4 1.8 1.6 0 3-0.5 1.4-0.4 2.9-1.4z"/>
		</g>
		<g id="c">
			<path id="Layer" class="s0" d="m-26.7 547.9q-0.7-0.3-1.3-0.5-0.6-0.1-1.3-0.1-1.9 0-2.9 1.2-1 1.2-1 3.4v7.1h-4.9v-15.3h4.9v2.5q0.9-1.5 2.2-2.2 1.2-0.7 2.9-0.7 0.2 0 0.5 0 0.3 0.1 0.9 0.1z"/>
		</g>
		<g id="b">
			<path id="Layer" fill-rule="evenodd" class="s0" d="m-9 551.3v1.4h-11.5q0.2 1.7 1.3 2.6 1.1 0.8 3 0.8 1.5 0 3.1-0.4 1.7-0.5 3.4-1.4v3.8q-1.8 0.6-3.5 0.9-1.7 0.4-3.5 0.4-4.1 0-6.4-2.1-2.3-2.1-2.3-5.9 0-3.8 2.2-5.9 2.3-2.2 6.2-2.2 3.7 0 5.8 2.2 2.2 2.2 2.2 5.8zm-5-1.6q0-1.4-0.8-2.3-0.9-0.8-2.2-0.8-1.4 0-2.3 0.8-0.9 0.8-1.1 2.3z"/>
		</g>
		<g id="l">
			<path id="Layer" fill-rule="evenodd" class="s0" d="m9 550.3v8.7h-4.9v-2.3q-1 1.4-2.2 2.1-1.2 0.6-3 0.6-2.4 0-3.9-1.4-1.5-1.4-1.4-3.6-0.1-2.7 1.8-3.9 1.9-1.3 5.8-1.3h2.9v-0.4q0-1.1-0.9-1.7-0.9-0.5-2.9-0.5-1.5 0-2.9 0.3-1.4 0.3-2.5 0.9v-3.7q1.6-0.4 3.1-0.6 1.6-0.2 3.2-0.2 4.2 0 6 1.7 1.8 1.6 1.8 5.3zm-7.4 1.8q-1.6 0-2.3 0.5-0.8 0.5-0.8 1.6 0 0.9 0.6 1.4 0.6 0.5 1.7 0.5 1.4 0 2.4-0.9 0.9-1 0.9-2.5v-0.6z"/>
		</g>
		<g id="a">
			<path id="Layer" class="s0" d="m18.9 539.3v4.4h5.1v3.5h-5.1v6.5q0 1.1 0.5 1.4 0.4 0.4 1.6 0.4h2.6v3.5h-4.2q-2.9 0-4.2-1.2-1.2-1.2-1.2-4.1v-6.5h-2.4v-3.5h2.4v-4.4z"/>
		</g>
		<g id="b">
			<path id="Layer" fill-rule="evenodd" class="s0" d="m42.3 551.3v1.4h-11.5q0.2 1.7 1.3 2.6 1 0.8 3 0.8 1.5 0 3.1-0.4 1.6-0.5 3.3-1.4v3.8q-1.7 0.6-3.4 0.9-1.8 0.4-3.5 0.4-4.2 0-6.5-2.1-2.3-2.1-2.3-5.9 0-3.8 2.3-5.9 2.3-2.2 6.2-2.2 3.6 0 5.8 2.2 2.2 2.2 2.2 5.8zm-5.1-1.6q0-1.4-0.8-2.3-0.8-0.8-2.1-0.8-1.4 0-2.3 0.8-0.9 0.8-1.1 2.3z"/>
		</g>
		<g id="k">
			<path id="Layer" fill-rule="evenodd" class="s0" d="m56.4 545.9v-8.2h4.9v21.3h-4.9v-2.2q-1 1.3-2.2 2-1.3 0.6-2.9 0.6-2.8 0-4.6-2.3-1.8-2.2-1.8-5.7 0-3.6 1.8-5.8 1.8-2.3 4.6-2.3 1.6 0 2.8 0.7 1.3 0.6 2.3 1.9zm-3.2 9.9q1.5 0 2.4-1.1 0.8-1.1 0.8-3.3 0-2.2-0.8-3.4-0.9-1.1-2.4-1.1-1.6 0-2.4 1.1-0.9 1.2-0.9 3.4 0 2.1 0.9 3.3 0.8 1.1 2.4 1.1z"/>
		</g>
		<g id="j">
			<path id="Layer" fill-rule="evenodd" class="s0" d="m80.7 545.9q1-1.3 2.2-1.9 1.2-0.7 2.8-0.7 2.9 0 4.7 2.3 1.8 2.2 1.8 5.8 0 3.5-1.8 5.7-1.8 2.3-4.7 2.3-1.6 0-2.8-0.6-1.2-0.7-2.2-2v2.2h-4.9v-21.3h4.9zm3.2 9.9q1.6 0 2.4-1.1 0.8-1.2 0.8-3.3 0-2.2-0.8-3.4-0.8-1.1-2.4-1.1-1.6 0-2.4 1.1-0.8 1.2-0.8 3.4 0 2.1 0.8 3.3 0.8 1.1 2.4 1.1z"/>
		</g>
		<g id="i">
			<path id="Layer" class="s0" d="m93.8 543.7h4.9l4.1 10.4 3.5-10.4h4.9l-6.4 16.8q-1 2.5-2.3 3.5-1.3 1-3.4 1h-2.9v-3.2h1.6q1.2 0 1.8-0.4 0.6-0.4 0.9-1.4l0.1-0.4z"/>
		</g>
		<g id="e">
			<path id="Layer" class="s0" d="m124 538.6h5.9l7.4 14v-14h5v20.4h-5.9l-7.4-14v14h-5z"/>
		</g>
		<g id="u">
			<path id="Layer" class="s0" d="m147.2 543.7h4.9v15.3h-4.9zm0-6h4.9v4h-4.9z"/>
		</g>
		<g id="h">
			<path id="Layer" class="s0" d="m169.2 544.2v4q-1-0.7-2-1.1-1-0.3-2.1-0.3-2 0-3.2 1.2-1.1 1.2-1.1 3.4 0 2.1 1.1 3.3 1.2 1.2 3.2 1.2 1.2 0 2.2-0.3 1-0.4 1.9-1.1v4q-1.1 0.5-2.3 0.7-1.2 0.2-2.4 0.2-4.1 0-6.5-2.1-2.3-2.2-2.3-5.9 0-3.8 2.3-6 2.4-2.1 6.5-2.1 1.2 0 2.4 0.2 1.1 0.2 2.3 0.7z"/>
		</g>
		<g id="t">
			<path id="Layer" class="s0" d="m173.4 537.7h4.9v11.6l5.7-5.6h5.6l-7.4 7 8 8.3h-5.9l-6-6.4v6.4h-4.9z"/>
		</g>
		<g id="s">
			<path id="Layer" fill-rule="evenodd" class="s0" d="m215.3 548.1q1.7 0.5 2.6 1.8 0.9 1.3 0.9 3.2 0 3-2 4.4-2 1.5-6 1.5h-8.8v-20.4h7.9q4.3 0 6.2 1.3 1.9 1.3 1.9 4.1 0 1.5-0.7 2.5-0.7 1.1-2 1.6zm-4.9 7.3q1.6 0 2.4-0.7 0.8-0.6 0.8-2 0-1.3-0.8-2-0.8-0.6-2.4-0.6h-3.1v5.3zm-0.2-8.9q1.2 0 1.9-0.6 0.6-0.5 0.6-1.6 0-1-0.6-1.6-0.7-0.5-1.9-0.5h-2.9v4.3z"/>
		</g>
		<g id="r">
			<path id="Layer" class="s0" d="m223.1 537.7h4.9v21.3h-4.9z"/>
		</g>
		<g id="g">
			<path id="Layer" class="s0" d="m232.6 553v-9.3h4.9v1.5q0 1.3 0 3.1 0 1.9 0 2.5 0 1.9 0.1 2.7 0.1 0.8 0.3 1.2 0.3 0.5 0.8 0.7 0.5 0.3 1.1 0.3 1.5 0 2.4-1.2 0.9-1.2 0.9-3.3v-7.5h4.9v15.3h-4.9v-2.2q-1.1 1.3-2.4 2-1.2 0.6-2.7 0.6-2.6 0-4-1.6-1.4-1.7-1.4-4.8z"/>
		</g>
		<g id="a">
			<path id="Layer" class="s0" d="m258 539.3v4.4h5.1v3.5h-5.1v6.5q0 1.1 0.4 1.4 0.5 0.4 1.7 0.4h2.5v3.5h-4.2q-2.9 0-4.1-1.2-1.2-1.2-1.2-4.1v-6.5h-2.4v-3.5h2.4v-4.4z"/>
		</g>
		<g id="f">
			<path id="Layer" class="s0" d="m281.5 549.7v9.3h-5v-7.1q0-2-0.1-2.8-0.1-0.7-0.3-1.1-0.3-0.5-0.8-0.7-0.4-0.3-1.1-0.3-1.5 0-2.4 1.2-0.8 1.2-0.8 3.3v7.5h-4.9v-21.3h4.9v8.2q1.1-1.3 2.3-1.9 1.2-0.7 2.8-0.7 2.6 0 4 1.7 1.4 1.6 1.4 4.7z"/>
		</g>
		<g id="q">
			<path id="Layer" class="s0" d="m-48.6 565.7v3.2h-2.7q-1 0-1.4 0.4-0.4 0.4-0.4 1.3v1.1h4.1v3.5h-4.1v11.8h-4.9v-11.8h-2.5v-3.5h2.5v-1.1q0-2.5 1.4-3.7 1.3-1.2 4.3-1.2z"/>
		</g>
		<g id="c">
			<path id="Layer" class="s0" d="m-35.1 575.9q-0.6-0.3-1.3-0.5-0.6-0.1-1.2-0.1-1.9 0-3 1.2-1 1.2-1 3.4v7.1h-4.9v-15.3h4.9v2.5q1-1.5 2.2-2.2 1.2-0.7 2.9-0.7 0.3 0 0.6 0 0.3 0.1 0.8 0.1z"/>
		</g>
		<g id="d">
			<path id="Layer" fill-rule="evenodd" class="s0" d="m-25.4 571.3q4 0 6.2 2.2 2.2 2.1 2.2 5.9 0 3.7-2.2 5.9-2.2 2.1-6.2 2.1-3.9 0-6.2-2.1-2.2-2.2-2.2-5.9 0-3.8 2.2-5.9 2.3-2.2 6.2-2.2zm0 3.5q-1.6 0-2.5 1.2-0.8 1.2-0.8 3.4 0 2.2 0.8 3.3 0.9 1.2 2.5 1.2 1.6 0 2.5-1.2 0.8-1.1 0.8-3.3 0-2.2-0.8-3.4-0.9-1.2-2.5-1.2z"/>
		</g>
		<g id="p">
			<path id="Layer" class="s0" d="m0.8 574.2q0.9-1.4 2.2-2.1 1.3-0.8 2.8-0.8 2.6 0 4 1.7 1.4 1.6 1.4 4.7v9.3h-4.9v-8-0.3q0-0.2 0-0.6 0-1.6-0.5-2.4-0.5-0.7-1.5-0.7-1.4 0-2.2 1.2-0.8 1.1-0.8 3.3v7.5h-4.9v-8q0-2.5-0.4-3.3-0.5-0.7-1.6-0.7-1.4 0-2.2 1.2-0.7 1.1-0.7 3.3v7.5h-4.9v-15.3h4.9v2.2q0.9-1.3 2-1.9 1.2-0.7 2.6-0.7 1.6 0 2.8 0.8 1.2 0.7 1.9 2.1z"/>
		</g>
		<g id="a">
			<path id="Layer" class="s0" d="m30.9 567.3v4.4h5v3.5h-5v6.5q0 1.1 0.4 1.4 0.4 0.4 1.6 0.4h2.6v3.5h-4.2q-2.9 0-4.1-1.2-1.3-1.2-1.3-4.1v-6.5h-2.4v-3.5h2.4v-4.4z"/>
		</g>
		<g id="f">
			<path id="Layer" class="s0" d="m54.3 577.7v9.3h-4.9v-7.1q0-2-0.1-2.8-0.1-0.7-0.3-1.1-0.3-0.5-0.8-0.7-0.5-0.3-1.1-0.3-1.6 0-2.4 1.2-0.9 1.2-0.9 3.3v7.5h-4.9v-21.3h4.9v8.2q1.1-1.3 2.3-1.9 1.3-0.7 2.8-0.7 2.6 0 4 1.7 1.4 1.6 1.4 4.7z"/>
		</g>
		<g id="b">
			<path id="Layer" fill-rule="evenodd" class="s0" d="m74.1 579.3v1.4h-11.4q0.1 1.7 1.2 2.6 1.1 0.8 3 0.8 1.5 0 3.1-0.4 1.7-0.5 3.4-1.4v3.8q-1.8 0.6-3.5 0.9-1.7 0.4-3.5 0.4-4.1 0-6.4-2.1-2.3-2.1-2.3-5.9 0-3.8 2.2-5.9 2.3-2.2 6.3-2.2 3.6 0 5.7 2.2 2.2 2.2 2.2 5.8zm-5-1.6q0-1.4-0.8-2.3-0.8-0.8-2.2-0.8-1.4 0-2.3 0.8-0.9 0.8-1.1 2.3z"/>
		</g>
		<g id="e">
			<path id="Layer" class="s0" d="m87.8 566.6h5.9l7.4 14v-14h5v20.4h-5.9l-7.4-14v14h-5z"/>
		</g>
		<g id="d">
			<path id="Layer" fill-rule="evenodd" class="s0" d="m118.3 571.3q3.9 0 6.2 2.2 2.2 2.1 2.2 5.9 0 3.7-2.2 5.9-2.3 2.1-6.2 2.1-4 0-6.2-2.1-2.3-2.2-2.3-5.9 0-3.8 2.3-5.9 2.2-2.2 6.2-2.2zm0 3.5q-1.6 0-2.5 1.2-0.9 1.2-0.9 3.4 0 2.2 0.9 3.3 0.9 1.2 2.5 1.2 1.6 0 2.4-1.2 0.9-1.1 0.9-3.3 0-2.2-0.9-3.4-0.8-1.2-2.4-1.2z"/>
		</g>
		<g id="g">
			<path id="Layer" class="s0" d="m130.1 581v-9.3h4.9v1.5q0 1.3 0 3.1 0 1.9 0 2.5 0 1.9 0.1 2.7 0.1 0.8 0.3 1.2 0.3 0.5 0.8 0.7 0.5 0.3 1.1 0.3 1.5 0 2.4-1.2 0.9-1.2 0.9-3.3v-7.5h4.9v15.3h-4.9v-2.2q-1.1 1.3-2.4 2-1.2 0.6-2.7 0.6-2.7 0-4-1.6-1.4-1.7-1.4-4.8z"/>
		</g>
		<g id="o">
			<path id="Layer" class="s0" d="m165.6 577.7v9.3h-5v-7.1q0-2-0.1-2.8 0-0.7-0.3-1.1-0.2-0.5-0.7-0.7-0.5-0.3-1.2-0.3-1.5 0-2.4 1.2-0.8 1.2-0.8 3.3v7.5h-4.9v-15.3h4.9v2.2q1.1-1.3 2.3-1.9 1.3-0.7 2.8-0.7 2.6 0 4 1.7 1.4 1.6 1.4 4.7z"/>
		</g>
		<g id="n">
			<path id="Layer" fill-rule="evenodd" class="s0" d="m180.1 566.6h8.7q3.9 0 6 1.7 2.1 1.8 2.1 5 0 3.2-2.1 4.9-2.1 1.7-6 1.7h-3.5v7.1h-5.2zm5.2 3.8v5.7h2.9q1.6 0 2.4-0.7 0.8-0.8 0.8-2.1 0-1.4-0.8-2.2-0.8-0.7-2.4-0.7z"/>
		</g>
		<g id="c">
			<path id="Layer" class="s0" d="m211.7 575.9q-0.6-0.3-1.2-0.5-0.7-0.1-1.3-0.1-1.9 0-2.9 1.2-1 1.2-1 3.4v7.1h-4.9v-15.3h4.9v2.5q0.9-1.5 2.1-2.2 1.3-0.7 3-0.7 0.2 0 0.5 0 0.3 0.1 0.8 0.1z"/>
		</g>
		<g id="d">
			<path id="Layer" fill-rule="evenodd" class="s0" d="m221.5 571.3q3.9 0 6.1 2.2 2.2 2.1 2.3 5.9-0.1 3.7-2.3 5.9-2.2 2.1-6.1 2.1-4 0-6.2-2.1-2.3-2.2-2.3-5.9 0-3.8 2.3-5.9 2.2-2.2 6.2-2.2zm0 3.5q-1.7 0-2.5 1.2-0.9 1.2-0.9 3.4 0 2.2 0.9 3.3 0.8 1.2 2.5 1.2 1.6 0 2.4-1.2 0.9-1.1 0.9-3.3 0-2.2-0.9-3.4-0.8-1.2-2.4-1.2z"/>
		</g>
		<g id="m">
			<path id="Layer" class="s0" d="m233.4 571.7h4.9v15q0 3.1-1.5 4.7-1.4 1.6-4.3 1.6h-2.4v-3.2h0.9q1.4 0 1.9-0.6 0.5-0.6 0.5-2.5zm0-5.9h4.9v4h-4.9z"/>
		</g>
		<g id="b">
			<path id="Layer" fill-rule="evenodd" class="s0" d="m258.3 579.3v1.4h-11.5q0.2 1.7 1.3 2.6 1.1 0.8 3 0.8 1.5 0 3.1-0.4 1.7-0.5 3.4-1.4v3.8q-1.8 0.6-3.5 0.9-1.7 0.4-3.5 0.4-4.1 0-6.4-2.1-2.3-2.1-2.3-5.9 0-3.8 2.2-5.9 2.3-2.2 6.2-2.2 3.7 0 5.8 2.2 2.2 2.2 2.2 5.8zm-5-1.6q0-1.4-0.8-2.3-0.9-0.8-2.2-0.8-1.4 0-2.3 0.8-0.9 0.8-1.1 2.3z"/>
		</g>
		<g id="h">
			<path id="Layer" class="s0" d="m274.4 572.2v4q-1-0.7-2-1.1-1-0.3-2.1-0.3-2.1 0-3.2 1.2-1.2 1.2-1.2 3.4 0 2.1 1.2 3.3 1.1 1.2 3.2 1.2 1.1 0 2.2-0.3 1-0.4 1.9-1.1v4q-1.2 0.5-2.4 0.7-1.1 0.2-2.3 0.2-4.2 0-6.5-2.1-2.4-2.2-2.3-5.9-0.1-3.8 2.3-6 2.3-2.1 6.5-2.1 1.2 0 2.3 0.2 1.2 0.2 2.4 0.7z"/>
		</g>
		<g id="a">
			<path id="Layer" class="s0" d="m283.9 567.3v4.4h5.1v3.5h-5.1v6.5q0 1.1 0.5 1.4 0.4 0.4 1.6 0.4h2.6v3.5h-4.2q-2.9 0-4.2-1.2-1.2-1.2-1.2-4.1v-6.5h-2.4v-3.5h2.4v-4.4z"/>
		</g>
		<path id="форма 1" class="s0" d="m492 0h77v378h-77z"/>
	</g>
</svg>