<?xml version="1.0" standalone="no"?>
<!DOCTYPE svg PUBLIC "-//W3C//DTD SVG 1.1//EN" "http://www.w3.org/Graphics/SVG/1.1/DTD/svg11.dtd" >
<svg>
<metadata>
Created by FontForge 20090914 at Wed Nov  4 06:21:06 2020
 By www-data
Copyright 1990-2001 Bitstream Inc. All rights reserved.
</metadata>
<defs>
<font id="OCRB10PitchBT-Regular" horiz-adv-x="1233" >
  <font-face 
    font-family="OCR-B 10 BT"
    font-weight="400"
    font-stretch="normal"
    units-per-em="2048"
    panose-1="2 11 6 1 2 2 2 2 2 4"
    ascent="1556"
    descent="-492"
    x-height="883"
    cap-height="1184"
    bbox="-47 -592 3693 1591"
    underline-thickness="123"
    underline-position="-99"
    unicode-range="U+0020-U+2219"
  />
<missing-glyph 
d="M104 -362v1806h1024v-1806h-1024zM219 -248h795v1577h-795v-1577z" />
    <glyph glyph-name=".notdef" 
d="M104 -362v1806h1024v-1806h-1024zM219 -248h795v1577h-795v-1577z" />
    <glyph glyph-name="space" unicode=" " 
 />
    <glyph glyph-name="exclam" unicode="!" 
d="M520 1294h193l-17 -798h-159zM492 211h249v-211h-249v211z" />
    <glyph glyph-name="quotedbl" unicode="&#x22;" 
d="M290 1194h209l-59 -467h-150v467zM735 1194h208l-59 -467h-149v467z" />
    <glyph glyph-name="numbersign" unicode="#" 
d="M526 811l-69 -311h254l69 311h-254zM293 371h-88l31 129h86l69 311h-149l28 129h150l80 354h135l-80 -354h256l78 354h137l-80 -354h82l-26 -129h-84l-70 -311h147l-28 -129h-150l-84 -371h-135l84 371h-254l-84 -371h-135z" />
    <glyph glyph-name="dollar" unicode="$" 
d="M553 1069c-55.333 -4.66699 -100.166 -19.334 -134.499 -44.001s-51.5 -53.667 -51.5 -87c0 -39.333 14.167 -71.166 42.5 -95.499s76.166 -45.833 143.499 -64.5v291zM686 553v-316.999c60 10 106.333 28.167 139 54.5s49 58.5 49 96.5c0 40.667 -15.5 74.667 -46.5 102
s-78.167 48.666 -141.5 63.999zM188 373.001l166 -0.00292969c1.33301 -41.333 19.166 -74.166 53.499 -98.499s82.833 -37.833 145.5 -40.5v368l-133 49c-72 26.667 -127.167 62.667 -165.5 108s-57.5 97.333 -57.5 156c0 82.667 31.333 149.5 94 200.5s150 80.5 262 88.5
v88h133v-88c108.667 -12 189 -39 241 -81s81.667 -103.667 89 -185h-164c-4 38 -19.167 67.333 -45.5 88s-66.5 34.334 -120.5 41.001v-332l115 -43c88.667 -32.667 151.334 -71 188.001 -115s55 -101 55 -171c0 -88 -31.667 -160.167 -95 -216.5
s-151 -90.166 -263 -101.499v-88h-133l-1 86c-121.333 3.33301 -212.333 28.5 -273 75.5s-91 116.167 -91 207.5v4z" />
    <glyph glyph-name="percent" unicode="%" 
d="M823 115c24.667 0 43.832 9.33301 57.499 28s20.5 44.667 20.5 78c0 34.667 -6.66699 61.167 -20 79.5s-32.666 27.5 -57.999 27.5s-45 -9.16699 -59 -27.5s-21 -44.833 -21 -79.5s7 -61 21 -79s33.667 -27 59 -27zM1018 221c0 -65.333 -17.6689 -117.5 -53.002 -156.5
s-82.666 -58.5 -141.999 -58.5c-60 0 -107.667 19.333 -143 58s-53 91 -53 157c0 65.333 17.833 117.5 53.5 156.5s83.167 58.5 142.5 58.5c58.667 0 105.834 -19.5 141.501 -58.5s53.5 -91.167 53.5 -156.5zM411.996 963c24.667 0 43.667 9 57 27s20 44.333 20 79
s-6.66699 61.167 -20 79.5s-32.333 27.5 -57 27.5c-26 0 -45.833 -9.33301 -59.5 -28s-20.5 -45 -20.5 -79c0 -33.333 7 -59.333 21 -78s33.667 -28 59 -28zM605.996 1069c0 -66 -17.5 -118.333 -52.5 -157s-82.167 -58 -141.5 -58c-60 0 -107.833 19.333 -143.5 58
s-53.5 91 -53.5 157c0 65.333 17.833 117.5 53.5 156.5s83.5 58.5 143.5 58.5c58.667 0 105.667 -19.333 141 -58s53 -91 53 -157zM218.996 6v96l709 1182h84v-94l-703 -1184h-90z" />
    <glyph glyph-name="ampersand" unicode="&#x26;" 
d="M585 866c44 36.667 75.833 69.333 95.5 98s29.5 57 29.5 85c0 32.667 -13.333 59.167 -40 79.5s-62 30.5 -106 30.5c-49.333 0 -88.5 -14.167 -117.5 -42.5s-43.5 -66.833 -43.5 -115.5c0 -28 6.66699 -59 20 -93s35.333 -74.667 66 -122zM450 552.999
c-30.667 -27.333 -53.668 -57.833 -69.001 -91.5s-23 -70.167 -23 -109.5c0 -62 19.833 -113 59.5 -153s90.834 -60 153.501 -60c26 0 51 3.83301 75 11.5s47.333 19.5 70 35.5zM807.999 54.999c-36 -24.667 -75.499 -43.0029 -118.499 -55.0029s-90.167 -18 -141.5 -18
c-112 0 -202.5 34.5 -271.5 103.5s-103.5 159.167 -103.5 270.5c0 66.667 14.167 126.5 42.5 179.5s74.5 105.833 138.5 158.5c-43.333 63.333 -75.333 121 -96 173s-31 100.333 -31 145c0 90 30 161 90 213s142.333 78 247 78c98 0 174.833 -20.667 230.5 -62
s83.5 -98 83.5 -170c0 -52 -14.333 -102.667 -43 -152s-71.667 -97.666 -129 -144.999l-131 -106l254 -351c13.333 34.667 23.166 70.334 29.499 107.001s9.5 82.334 9.5 137.001c0 0.666992 -0.333008 2.66699 -1 6c-0.666992 9.33301 -1 19 -1 29h159
c0 -101.333 -7.33301 -185.5 -22 -252.5s-38 -123.5 -70 -169.5l127 -174h-213z" />
    <glyph glyph-name="quotesingle" unicode="'" 
d="M493 1194h247l-36 -563h-175z" />
    <glyph glyph-name="parenleft" unicode="(" 
d="M861 -18l-115.999 0.000976562c-131.333 94.667 -226.333 193.834 -285 297.501s-88 224.167 -88 361.5c0 139.333 29.167 261 87.5 365s153.5 203.667 285.5 299h116v-134c-104.667 -72.667 -181.334 -151.5 -230.001 -236.5s-73 -182.833 -73 -293.5
s24.5 -208.334 73.5 -293.001s125.5 -162.334 229.5 -233.001v-133z" />
    <glyph glyph-name="parenright" unicode=")" 
d="M371 1171v134.001h117c132 -95.333 227.167 -195 285.5 -299s87.5 -225.667 87.5 -365c0 -137.333 -29.333 -257.833 -88 -361.5s-153.667 -202.834 -285 -297.501h-117v133c105.333 70.667 182.666 148.5 231.999 233.5s74 182.5 74 292.5s-24.667 207.667 -74 293
s-126.666 164.333 -231.999 237z" />
    <glyph glyph-name="asterisk" unicode="*" 
d="M525 1034l0.00195312 51h183v-51c0 -10.667 -1.83301 -49.5 -5.5 -116.5s-6.5 -122.167 -8.5 -165.5c49.333 20 101.166 39.667 155.499 59s82.833 29.666 85.5 30.999l55 22l58 -174l-63 -18l-4 -1c-84.667 -26 -165.667 -47.667 -243 -65
c46.667 -52.667 100.667 -119 162 -199l4 -5l45 -58l-143 -104l-43 59l-77.5 112.5l-70.5 110.5l-90.5 -140.5l-56.5 -82.5l-43 -59l-141 104l43 59l78 100.5c27.333 33.667 56.666 67.834 87.999 102.501c-35.333 8 -71.166 16.667 -107.499 26s-82.5 22.666 -138.5 39.999
l-62 18l56 174l57 -22c2 -0.666992 30.5 -11 85.5 -31l156.5 -59c-2.66699 52 -5.83398 110.333 -9.50098 175s-5.5 100.334 -5.5 107.001z" />
    <glyph glyph-name="plus" unicode="+" 
d="M530 565h-309v158h309v375h172v-375h310v-158h-310v-375h-172v375z" />
    <glyph glyph-name="comma" unicode="," 
d="M653 315h297v-147l-471 -475h-196z" />
    <glyph glyph-name="hyphen" unicode="-" 
d="M211 750h811v-203h-811v203z" />
    <glyph glyph-name="period" unicode="." 
d="M428 301h377v-301h-377v301z" />
    <glyph glyph-name="slash" unicode="/" 
d="M795 1305h182l-537 -1319h-184z" />
    <glyph glyph-name="zero" unicode="0" 
d="M616 139c56 0 97.6689 3.49609 125.002 10.4961s47.333 18.5 60 34.5c21.333 26.667 37.166 77.834 47.499 153.501s15.5 176.834 15.5 303.501c0 120.667 -4.5 218.334 -13.5 293.001s-22.833 129.334 -41.5 164.001c-10.667 20.667 -30 35.334 -58 44.001
s-73 13 -135 13c-61.333 0 -106 -4.33301 -134 -13s-47.333 -23.334 -58 -44.001c-18.667 -36 -32.5 -91.167 -41.5 -165.5s-13.5 -171.5 -13.5 -291.5c0 -104 3.66699 -192 11 -264s18.666 -125.333 33.999 -160c12 -30 30.833 -50.5 56.5 -61.5s74.167 -16.5 145.5 -16.5z
M1049 640.996c0 -143.333 -9.66797 -261.331 -29.001 -353.998s-48.666 -164.334 -87.999 -215.001c-24 -30.667 -61.667 -53.334 -113 -68.001s-119 -22 -203 -22c-84.667 0 -152.167 7.5 -202.5 22.5s-88.5 38.833 -114.5 71.5c-38 48 -66.667 119.667 -86 215
s-29 212 -29 350c0 138.667 9.83301 256.167 29.5 352.5s48.167 168.5 85.5 216.5c26 32.667 64.167 56.667 114.5 72s117.833 23 202.5 23c74 0 136 -6.16699 186 -18.5s87.667 -30.833 113 -55.5c44 -41.333 77.333 -112 100 -212s34 -226 34 -378z" />
    <glyph glyph-name="one" unicode="1" 
d="M678 1079l-311 -272v227l303 250h195v-1284h-187v1079z" />
    <glyph glyph-name="two" unicode="2" 
d="M487 621l145.998 98c70 47.333 118.167 89.833 144.5 127.5s39.5 79.834 39.5 126.501c0 52 -20.5 95.667 -61.5 131s-92.833 53 -155.5 53c-45.333 0 -96.166 -11.667 -152.499 -35s-122.166 -60 -197.499 -110v200c50 31.333 103.167 54.666 159.5 69.999
s117.166 23 182.499 23c128.667 0 230.167 -31.667 304.5 -95s111.5 -149.333 111.5 -258c0 -70 -19.5 -133.333 -58.5 -190s-102.833 -114 -191.5 -172l-119 -78c-84 -55.333 -141.5 -105.833 -172.5 -151.5s-46.5 -98.167 -46.5 -157.5v-37h567v-156h-759
c-1.33301 10 -2.16602 20.167 -2.49902 30.5s-0.5 25.5 -0.5 45.5c0 133.333 19.667 239.5 59 318.5s107 151.167 203 216.5z" />
    <glyph glyph-name="three" unicode="3" 
d="M208 231c56.667 -30.667 112.169 -53.3301 166.502 -67.9971s109.166 -22 164.499 -22c89.333 0 161.166 24.667 215.499 74s81.5 114.333 81.5 195c0 82.667 -29 143.5 -87 182.5s-149 58.5 -273 58.5c-2 0 -10.167 -0.5 -24.5 -1.5s-27.833 -1.83301 -40.5 -2.5l-1 129
l344 352h-546v156h770v-176l-330 -330c117.333 -4.66699 209.5 -40.834 276.5 -108.501s100.5 -157.834 100.5 -270.501c0 -128.667 -44.5 -230.334 -133.5 -305.001s-210.5 -112 -364.5 -112c-48 0 -98.667 5.33301 -152 16s-109 27 -167 49v184z" />
    <glyph glyph-name="four" unicode="4" 
d="M693 289h-493v190l383 815h184l-399 -848h325v271h172v-271h168v-157h-168v-289h-172v289z" />
    <glyph glyph-name="five" unicode="5" 
d="M298 1284h643v-154h-483l-14 -266c10 0.666992 21 1.16699 33 1.5s30.333 0.5 55 0.5c131.333 0 238.833 -38.333 322.5 -115s125.5 -176 125.5 -298c0 -145.333 -60 -259.5 -180 -342.5s-286 -124.5 -498 -124.5h-49v159c8 -0.666992 16.667 -1.16699 26 -1.5
s23.333 -0.5 42 -0.5c150.667 0 267.5 28 350.5 84s124.5 134.667 124.5 236c0 77.333 -28.667 138.333 -86 183s-136.666 67 -237.999 67c-25.333 0 -55.833 -1.5 -91.5 -4.5s-76.834 -7.5 -123.501 -13.5z" />
    <glyph glyph-name="six" unicode="6" 
d="M621 145c76 0 135.501 23.833 178.501 71.5s64.5 113.5 64.5 197.5c0 78 -22 139.833 -66 185.5s-104.667 68.5 -182 68.5c-75.333 0 -135.333 -23.667 -180 -71s-67 -110.333 -67 -189c0 -80 22.667 -143.833 68 -191.5s106.666 -71.5 183.999 -71.5zM700.001 1294h234
c-79.333 -69.333 -154.666 -144.333 -225.999 -225s-143.333 -172.667 -216 -276c25.333 10 51.333 17.5 78 22.5s53.667 7.5 81 7.5c114 0 208.833 -38.667 284.5 -116s113.5 -174.333 113.5 -291c0 -127.333 -39.667 -230.833 -119 -310.5s-182.333 -119.5 -309 -119.5
c-132.667 0 -238.667 40.667 -318 122s-119 190 -119 326c0 128.667 41.667 262.5 125 401.5s213.666 291.833 390.999 458.5z" />
    <glyph glyph-name="seven" unicode="7" 
d="M378 166c0 132 20.499 254.166 61.499 366.499s104.5 219.5 190.5 321.5l94 113c40.667 48.667 67.167 83.5 79.5 104.5s18.5 39.167 18.5 54.5v7h-626v151h841v-59c0 -96 -51.333 -206 -154 -330l-28 -33l-88 -106c-73.333 -88.667 -127.166 -179.667 -161.499 -273
s-51.5 -195.666 -51.5 -306.999v-176h-176v166z" />
    <glyph glyph-name="eight" unicode="8" 
d="M616 625c-89.333 -42 -152.833 -84 -190.5 -126s-56.5 -91.667 -56.5 -149c0 -65.333 21.833 -116.833 65.5 -154.5s104.167 -56.5 181.5 -56.5c78 0 138.833 18.833 182.5 56.5s65.5 89.167 65.5 154.5c0 56.667 -18.833 106.167 -56.5 148.5s-101.5 84.5 -191.5 126.5z
M616 805c62.667 26 110.833 56.166 144.5 90.499s50.5 70.5 50.5 108.5c0 45.333 -17 80.833 -51 106.5s-82 38.5 -144 38.5c-59.333 0 -106.5 -12.833 -141.5 -38.5s-52.5 -59.834 -52.5 -102.501c0 -41.333 16.667 -79.166 50 -113.499s81.333 -64.166 144 -89.499z
M779.999 716.999c97.333 -52.667 166.498 -108.667 207.498 -168s61.5 -131.666 61.5 -216.999c0 -111.333 -37.667 -197.5 -113 -258.5s-182 -91.5 -320 -91.5c-137.333 0 -243.666 31.667 -318.999 95s-113 152.333 -113 267c0 80 21 149.167 63 207.5
s110.667 113.5 206 165.5c-69.333 44 -121.166 90.667 -155.499 140s-51.5 101.666 -51.5 156.999c0 88 33.333 158.167 100 210.5s156.667 78.5 270 78.5s203.5 -25.667 270.5 -77s100.5 -119.333 100.5 -204c0 -59.333 -17 -114 -51 -164s-86 -97 -156 -141z" />
    <glyph glyph-name="nine" unicode="9" 
d="M616 1153c-78 0 -138.667 -23.5 -182 -70.5s-65 -112.833 -65 -197.5c0 -78 22.167 -139.833 66.5 -185.5s104.5 -68.5 180.5 -68.5c75.333 0 135.5 23.833 180.5 71.5s67.5 111.167 67.5 190.5c0 78 -22.667 140.833 -68 188.5s-105.333 71.5 -180 71.5zM545 0
l-243.999 -0.000976562c96.667 96 181.167 185.5 253.5 268.5s134.5 162.167 186.5 237.5c-24.667 -11.333 -50 -19.666 -76 -24.999s-53 -8 -81 -8c-116 0 -211.667 38.333 -287 115s-113 175 -113 295c0 127.333 39 229.5 117 306.5s181.667 115.5 311 115.5
c135.333 0 242 -39.5 320 -118.5s117 -186.5 117 -322.5c0 -120 -39.833 -248.5 -119.5 -385.5s-207.834 -296.5 -384.501 -478.5z" />
    <glyph glyph-name="colon" unicode=":" 
d="M446 893h340v-277h-340v277zM446 274h340v-274h-340v274z" />
    <glyph glyph-name="semicolon" unicode=";" 
d="M546 893h317v-275h-317v275zM572 279h367l-424 -566h-221z" />
    <glyph glyph-name="less" unicode="&#x3c;" 
d="M1042 49l-852 572v59l852 571v-213l-602 -387l602 -387v-215z" />
    <glyph glyph-name="equal" unicode="=" 
d="M222 918h789v-158h-789v158zM1011 530v-157h-789v157h789z" />
    <glyph glyph-name="greater" unicode="&#x3e;" 
d="M794 651l-604 387v213l852 -571v-59l-852 -572v215z" />
    <glyph glyph-name="question" unicode="?" 
d="M550 520c0 22.667 4.5 43.166 13.5 61.499s24.833 38.833 47.5 61.5l84 82c34 32.667 58.167 63.334 72.5 92.001s21.5 59.334 21.5 92.001c0 46 -15.167 82.5 -45.5 109.5s-71.833 40.5 -124.5 40.5c-60 0 -106.333 -15.833 -139 -47.5s-49 -76.5 -49 -134.5v-52h-174
v43c0 115.333 30 201.5 90 258.5s150 85.5 270 85.5c109.333 0 196.5 -26.833 261.5 -80.5s97.5 -124.834 97.5 -213.501c0 -51.333 -10 -98 -30 -140s-53 -85.667 -99 -131l-98 -100c-10 -10 -16.667 -18.5 -20 -25.5s-5 -17.833 -5 -32.5v-59h-174v90zM513 216.999h248
v-217h-248v217z" />
    <glyph glyph-name="at" unicode="@" 
d="M454 571c-35.333 0 -62.001 -17.501 -80.001 -52.501s-27 -87.167 -27 -156.5c0 -84.667 9.5 -146 28.5 -184s49.833 -57 92.5 -57c40.667 0 70.334 15.833 89.001 47.5s28 82.834 28 153.501c0 84 -10.833 146.5 -32.5 187.5s-54.5 61.5 -98.5 61.5zM586.999 638.999
v51.001h143v-461c0 -38 5.33301 -65.5 16 -82.5s28 -25.5 52 -25.5c34.667 0 58.667 19.667 72 59s20 127.333 20 264v201c0 156 -23 266.667 -69 332s-122.667 98 -230 98c-80.667 0 -140.5 -16.667 -179.5 -50s-58.5 -85 -58.5 -155v-6h-151v4
c0 104 35.167 185.333 105.5 244s168.166 88 293.499 88c140 0 246.667 -45.167 320 -135.5s110 -221.833 110 -394.5v-242c0 -166.667 -18 -281.334 -54 -344.001s-97 -94 -183 -94c-35.333 0 -66 8 -92 24s-47.333 40 -64 72c-20 -32 -45.5 -56 -76.5 -72
s-67.5 -24 -109.5 -24c-83.333 0 -145.833 30 -187.5 90s-62.5 149.333 -62.5 268c0 117.333 19.667 204.666 59 261.999s99.333 86 180 86c31.333 0 58.833 -4.66699 82.5 -14s44.834 -23.666 63.501 -42.999z" />
    <glyph glyph-name="A" unicode="A" 
d="M608 1047l-135 -543h271zM496 1202h239l316 -1202h-185l-84 346h-348l-86 -346h-166z" />
    <glyph glyph-name="B" unicode="B" 
d="M361 1028v-330h205c98 0 167.833 12.5 209.5 37.5s62.5 65.833 62.5 122.5c0 59.333 -21.167 102.5 -63.5 129.5s-109.833 40.5 -202.5 40.5h-211zM361 545v-379h205c102.667 0 177.167 15.167 223.5 45.5s69.5 78.5 69.5 144.5c0 64 -22.833 111.5 -68.5 142.5
s-115.167 46.5 -208.5 46.5h-221zM189 1184l422 0.00195312c128.667 0 228 -27.833 298 -83.5s105 -134.5 105 -236.5c0 -60.667 -12.167 -110.834 -36.5 -150.501s-61.833 -69.834 -112.5 -90.501c58 -20.667 102.167 -53.834 132.5 -99.501s45.5 -102.167 45.5 -169.5
c0 -68 -16.833 -128.667 -50.5 -182s-80.5 -93.666 -140.5 -120.999c-31.333 -14.667 -66 -25.167 -104 -31.5s-94 -9.5 -168 -9.5h-57h-334v1174z" />
    <glyph glyph-name="C" unicode="C" 
d="M971 918l-177.999 -0.000976562c-3.33301 42.667 -17 75.167 -41 97.5s-57.333 33.5 -100 33.5c-68 0 -119.833 -38.333 -155.5 -115s-53.5 -187.334 -53.5 -332.001c0 -152 17.667 -267.833 53 -347.5s87.333 -119.5 156 -119.5c43.333 0 78 12 104 36
s39.667 56.333 41 97h178c-11.333 -89.333 -44.666 -159.666 -99.999 -210.999s-125.666 -77 -210.999 -77c-130 0 -230.167 54.333 -300.5 163s-105.5 264.334 -105.5 467.001c0 183.333 36.167 327.833 108.5 433.5s170.166 158.5 293.499 158.5
c87.333 0 158.666 -25.333 213.999 -76s87.666 -120 96.999 -208z" />
    <glyph glyph-name="D" unicode="D" 
d="M424 1030v-861.999c110 3.33301 198.833 41.666 266.5 114.999s101.5 168 101.5 284c0 122.667 -33.333 226 -100 310s-156 135 -268 153zM254 1184h131c168 0 309 -58.5 423 -175.5s171 -259.167 171 -426.5c0 -175.333 -52.667 -314.5 -158 -417.5
s-248 -154.5 -428 -154.5h-139v1174z" />
    <glyph glyph-name="E" unicode="E" 
d="M253 1184h709v-148h-539v-331h474v-156h-474v-381h557v-158h-727v1174z" />
    <glyph glyph-name="F" unicode="F" 
d="M308 1184h617v-150h-447v-332h367v-155h-367v-547h-170v1184z" />
    <glyph glyph-name="G" unicode="G" 
d="M594 637l428.001 0.000976562v-586c-74.667 -25.333 -138.334 -43.5 -191.001 -54.5s-101.667 -16.5 -147 -16.5c-148.667 0 -264.667 54.5 -348 163.5s-125 261.833 -125 458.5c0 190 42.667 338.5 128 445.5s202.333 160.5 351 160.5c89.333 0 163.333 -21.5 222 -64.5
s95.334 -102.5 110.001 -178.5h-178c-17.333 30 -38.833 53.167 -64.5 69.5s-54.167 24.5 -85.5 24.5c-98.667 0 -173.167 -38.167 -223.5 -114.5s-75.5 -189.833 -75.5 -340.5c0 -154 24.5 -270.333 73.5 -349s121.5 -118 217.5 -118c23.333 0 48.666 3.16699 75.999 9.5
s57.333 16.166 90 29.499v305h-258v156z" />
    <glyph glyph-name="H" unicode="H" 
d="M241 1194h170v-500h411v500h170v-1194h-170v539h-411v-539h-170v1194z" />
    <glyph glyph-name="I" unicode="I" 
d="M315 168h215v864h-178v152h529v-152h-179v-864h216v-158h-603v158z" />
    <glyph glyph-name="J" unicode="J" 
d="M483 385l-0.000976562 -63.002c0 -70 10 -118.333 30 -145s53.667 -40 101 -40c46 0 80 13.833 102 41.5s33 69.834 33 126.501v889h170v-834c0 -129.333 -24.5 -224.666 -73.5 -285.999s-125.5 -92 -229.5 -92c-101.333 0 -177.166 27.833 -227.499 83.5
s-75.5 139.5 -75.5 251.5v68h170z" />
    <glyph glyph-name="K" unicode="K" 
d="M155 1194h170v-496l483 496h229l-571 -565l612 -629h-239l-514 549v-549h-170v1194z" />
    <glyph glyph-name="L" unicode="L" 
d="M230 1194h170v-1026h602v-158h-772v1184z" />
    <glyph glyph-name="M" unicode="M" 
d="M195 1194h276l145 -526l146 526h276v-1194h-170v1024l-186 -635h-139l-187 639v-1028h-161v1194z" />
    <glyph glyph-name="N" unicode="N" 
d="M221 1194h205l424 -891v891h162v-1194h-197l-432 899v-899h-162v1194z" />
    <glyph glyph-name="O" unicode="O" 
d="M616 141c72.667 0 131.167 41.501 175.5 124.501s66.5 195.167 66.5 336.5c0 142 -21.833 254 -65.5 336s-102.5 123 -176.5 123c-73.333 0 -131.833 -40.833 -175.5 -122.5s-65.5 -193.834 -65.5 -336.501c0 -142 22 -254.333 66 -337s102.333 -124 175 -124z
M1042 598.001c0 -182 -40.167 -330.167 -120.5 -444.5s-182.166 -171.5 -305.499 -171.5c-122.667 0 -224.334 57.333 -305.001 172s-121 262.667 -121 444c0 182 40.333 330.167 121 444.5s182.334 171.5 305.001 171.5c123.333 0 225.166 -57.167 305.499 -171.5
s120.5 -262.5 120.5 -444.5z" />
    <glyph glyph-name="P" unicode="P" 
d="M384 1032l-0.000976562 -380.999h192c92.667 0 158.834 14.667 198.501 44s59.5 77.666 59.5 144.999c0 64 -20.167 112 -60.5 144s-100.5 48 -180.5 48h-209zM213.999 1184l408.999 0.000976562c124 0 221 -30.333 291 -91s105 -144.334 105 -251.001
c0 -106 -33.667 -189.833 -101 -251.5s-158.666 -92.5 -273.999 -92.5h-260v-498h-170v1184z" />
    <glyph glyph-name="Q" unicode="Q" 
d="M662 262l-238.999 316.001h215l116 -152c8.66699 30 15 60 19 90s6 62 6 96c0 137.333 -20.333 246.166 -61 326.499s-94.667 120.5 -162 120.5c-72.667 0 -127.834 -36.167 -165.501 -108.5s-56.5 -178.166 -56.5 -317.499c0 -126.667 20.667 -226.334 62 -299.001
s97.333 -109 168 -109c20 0 37.667 3 53 9s30.333 15.333 45 28zM877.001 262.001l205.002 -261.999h-217l-100 133c-35.333 -23.333 -69.333 -40.333 -102 -51s-66.334 -16 -101.001 -16c-124.667 0 -224.5 52.667 -299.5 158s-112.5 247 -112.5 425
c0 172.667 37 310 111 412s173 153 297 153c120.667 0 219 -53.5 295 -160.5s114 -247.833 114 -422.5c0 -72 -7.33301 -137.833 -22 -197.5s-37.334 -116.834 -68.001 -171.501z" />
    <glyph glyph-name="R" unicode="R" 
d="M388 1032v-378.999h131c83.333 0 145.833 15.167 187.5 45.5s62.5 76.166 62.5 137.499c0 68.667 -20 118.5 -60 149.5s-104.667 46.5 -194 46.5h-127zM218 1184l320 0.000976562c139.333 0 243.333 -28.167 312 -84.5s103 -141.5 103 -255.5
c0 -86.667 -20.833 -156.834 -62.5 -210.501s-102.5 -89.5 -182.5 -107.5l307 -526h-205l-277 498h-145v-498h-170v1184z" />
    <glyph glyph-name="S" unicode="S" 
d="M797 903c-2.66699 48 -19.834 85.666 -51.501 112.999s-74.167 41 -127.5 41c-52.667 0 -96.167 -14.667 -130.5 -44s-51.5 -66 -51.5 -110c0 -37.333 14.667 -70.833 44 -100.5s83.666 -63.834 162.999 -102.501l68 -32c102.667 -50.667 175 -103.167 217 -157.5
s63 -120.166 63 -197.499c0 -100 -35.667 -179.5 -107 -238.5s-167.333 -88.5 -288 -88.5c-111.333 0 -197.166 29.333 -257.499 88s-92.5 144 -96.5 256h184v-6c0 -58.667 15.167 -104.167 45.5 -136.5s72.5 -48.5 126.5 -48.5c61.333 0 111.5 16.667 150.5 50
s58.5 75.333 58.5 126c0 43.333 -13.333 79.833 -40 109.5s-92.667 69.834 -198 120.501l-84 41c-77.333 36.667 -135.166 81 -173.499 133s-57.5 112 -57.5 180c0 92.667 34.667 167.667 104 225s160.333 86 273 86c101.333 0 182.833 -27.167 244.5 -81.5
s96.167 -129.5 103.5 -225.5h-182z" />
    <glyph glyph-name="T" unicode="T" 
d="M531 1028h-315v156h801v-156h-316v-1028h-170v1028z" />
    <glyph glyph-name="U" unicode="U" 
d="M218 1194h170v-764c0 -110.667 17.667 -186.5 53 -227.5s95 -61.5 179 -61.5c82.667 0 141.834 21.667 177.501 65s53.5 117.333 53.5 222v766h164v-793c0 -143.333 -33.333 -249 -100 -317s-170 -102 -310 -102c-70.667 0 -133.834 12.5 -189.501 37.5
s-99.5 60.833 -131.5 107.5c-24 34 -41 73.5 -51 118.5s-15 122.833 -15 233.5v715z" />
    <glyph glyph-name="V" unicode="V" 
d="M170 1194h182l271 -1030l268 1030h172l-322 -1194h-243z" />
    <glyph glyph-name="W" unicode="W" 
d="M192 1194l175.998 -0.00195312c1.33301 -177.333 7.33301 -341.833 18 -493.5s26 -293.834 46 -426.501l115 455h153l121 -455c14 100.667 25.333 218.834 34 354.501s16.334 324.167 23.001 565.5h162c-4.66699 -268 -16.667 -496.667 -36 -686
s-47.666 -358.666 -84.999 -507.999h-178l-121 434l-116 -434h-183c-37.333 138 -66.333 301.833 -87 491.5s-34.667 423.834 -42 702.501z" />
    <glyph glyph-name="X" unicode="X" 
d="M510 608l-332 586h205l231 -424l236 424h188l-319 -576l338 -618h-203l-242 457l-241 -457h-195z" />
    <glyph glyph-name="Y" unicode="Y" 
d="M540 539l-356 655h203l239 -459l236 459h186l-338 -637v-557h-170v539z" />
    <glyph glyph-name="Z" unicode="Z" 
d="M262 145l455 885h-449v154h645v-142l-448 -876h506v-156h-709v135z" />
    <glyph glyph-name="bracketleft" unicode="[" 
d="M305 -18v1323h623v-154h-453v-1008h453v-161h-623z" />
    <glyph glyph-name="backslash" unicode="\" 
d="M253 1305h188l539 -1323h-186z" />
    <glyph glyph-name="bracketright" unicode="]" 
d="M305 143h453v1008h-453v154h623v-1323h-623v161z" />
    <glyph glyph-name="asciicircum" unicode="^" 
d="M576 1290h82l385 -583l-104 -86l-322 340l-321 -340l-107 86z" />
    <glyph glyph-name="underscore" unicode="_" 
d="M-47 -592v156h1327v-156h-1327z" />
    <glyph glyph-name="grave" unicode="`" 
d="M636 1014l-208 280h221l155 -280h-168z" />
    <glyph glyph-name="a" unicode="a" 
d="M841 417c-12 1.33301 -27.668 2.33301 -47.001 3c-27.333 1.33301 -45 2 -53 2c-113.333 0 -197.666 -13.167 -252.999 -39.5s-83 -66.5 -83 -120.5c0 -38 14.667 -69.333 44 -94s67.333 -37 114 -37c78 0 143 26.5 195 79.5s79.667 121.833 83 206.5zM840.999 115
c-36.667 -42.667 -78.6689 -74.501 -126.002 -95.501s-99.333 -31.5 -156 -31.5c-95.333 0 -171.833 25.667 -229.5 77s-86.5 119 -86.5 203c0 102 42.333 176.667 127 224s217 71 397 71c8.66699 0 21.167 -0.333008 37.5 -1s28.5 -1 36.5 -1v6
c0 70.667 -17.667 121.834 -53 153.501s-92.666 47.5 -171.999 47.5c-43.333 0 -76.833 -5.66699 -100.5 -17s-39.5 -29 -47.5 -53h-167c8 69.333 39.167 121.833 93.5 157.5s129.5 53.5 225.5 53.5c128.667 0 222.334 -27.833 281.001 -83.5s88 -144.5 88 -266.5v-559h-148
v115z" />
    <glyph glyph-name="b" unicode="b" 
d="M617 131c78.667 0 139.667 27.998 183 83.998s65 134.667 65 236c0 94.667 -22.333 169.834 -67 225.501s-105 83.5 -181 83.5c-80 0 -143.333 -28 -190 -84s-70 -132.667 -70 -230s23.333 -174.166 70 -230.499s110 -84.5 190 -84.5zM205 1292l151.998 0.00195312v-508
c38 40 80.833 70.167 128.5 90.5s99.834 30.5 156.501 30.5c118 0 211.667 -40.833 281 -122.5s104 -192.834 104 -333.501c0 -144.667 -34.167 -258.334 -102.5 -341.001s-161.166 -124 -278.499 -124c-66.667 0 -123.167 10.5 -169.5 31.5s-88.833 55.5 -127.5 103.5v-119
h-144v1292z" />
    <glyph glyph-name="c" unicode="c" 
d="M950 647h-165.999c-3.33301 38.667 -17 68.167 -41 88.5s-57.667 30.5 -101 30.5c-70.667 0 -123 -24.667 -157 -74s-51 -125 -51 -227c0 -112 16.333 -196.333 49 -253s81.667 -85 147 -85c47.333 0 84.166 12.833 110.499 38.5s41.5 64.167 45.5 115.5h172
c-4 -94.667 -34.667 -167.167 -92 -217.5s-137.333 -75.5 -240 -75.5c-110 0 -196.167 40.5 -258.5 121.5s-93.5 193.167 -93.5 336.5c0 149.333 32.5 262.5 97.5 339.5s160.167 115.5 285.5 115.5c88.667 0 158.5 -22.167 209.5 -66.5s78.833 -106.833 83.5 -187.5z" />
    <glyph glyph-name="d" unicode="d" 
d="M614 760c-75.333 0 -135.5 -28.001 -180.5 -84.001s-67.5 -131 -67.5 -225c0 -101.333 21.667 -180 65 -236s104.333 -84 183 -84c80.667 0 144.5 28.333 191.5 85s70.5 133.334 70.5 230.001s-23.667 173.167 -71 229.5s-111 84.5 -191 84.5zM874 783.999
l-0.00195312 507.998h154v-1292h-146v119c-40 -48 -83 -82.5 -129 -103.5s-102 -31.5 -168 -31.5c-117.333 0 -210.166 41.333 -278.499 124s-102.5 196.334 -102.5 341.001c0 140.667 34.667 251.834 104 333.501s163 122.5 281 122.5
c56.667 0 108.834 -10.167 156.501 -30.5s90.5 -50.5 128.5 -90.5z" />
    <glyph glyph-name="e" unicode="e" 
d="M845 557c-7.33301 68 -30 120.499 -68 157.499s-88.333 55.5 -151 55.5c-60.667 0 -111.5 -18.667 -152.5 -56s-68.167 -89.666 -81.5 -156.999h453zM785 194.999l183 -0.00195312c-10.667 -65.333 -44.334 -116.5 -101.001 -153.5s-129.667 -55.5 -219 -55.5
c-133.333 0 -237.666 40.667 -312.999 122s-113 195 -113 341c0 142 37.333 253.833 112 335.5s176 122.5 304 122.5c119.333 0 211.333 -41.667 276 -125s97 -202.666 97 -357.999v-6h-619v-10c0 -87.333 22.667 -155.666 68 -204.999s107.333 -74 186 -74
c38 0 68.667 5.5 92 16.5s39 27.5 47 49.5z" />
    <glyph glyph-name="f" unicode="f" 
d="M535 750l-250.999 -0.000976562v143h249c-0.666992 8.66699 -1.16699 17.667 -1.5 27s-0.5 23 -0.5 41c0 118.667 29.667 203.5 89 254.5s158 76.5 296 76.5h33v-141c-102.667 -1.33301 -172.334 -16.5 -209.001 -45.5s-55 -82.833 -55 -161.5l1 -17
c0.666992 -11.333 1 -22.666 1 -33.999h262v-143h-262v-750h-152v750z" />
    <glyph glyph-name="g" unicode="g" 
d="M610 760c-70 0 -125.833 -25.167 -167.5 -75.5s-62.5 -118.166 -62.5 -203.499c0 -92 20.167 -163.5 60.5 -214.5s96.833 -76.5 169.5 -76.5c74.667 0 134 25.667 178 77s66 120.666 66 207.999c0 88 -22 157.5 -66 208.5s-103.333 76.5 -178 76.5zM860 782
l-0.00292969 111h153v-803c0 -146 -31 -249 -93 -309s-166.667 -90 -314 -90c-105.333 0 -187.666 19.667 -246.999 59s-91 95.333 -95 168h169c4 -31.333 19.333 -53.5 46 -66.5s73 -19.5 139 -19.5c91.333 0 154.5 17 189.5 51s52.5 101.667 52.5 203v82
c-32.667 -41.333 -71.667 -72.166 -117 -92.499s-96.666 -30.5 -153.999 -30.5c-110.667 0 -200 39.5 -268 118.5s-102 183.5 -102 313.5c0 129.333 33.833 232.666 101.5 309.999s157.834 116 270.501 116c58 0 109.667 -10.167 155 -30.5s83.333 -50.5 114 -90.5z" />
    <glyph glyph-name="h" unicode="h" 
d="M807 553c0 69.333 -12.502 121.5 -37.502 156.5s-62.5 52.5 -112.5 52.5c-82 0 -141.333 -33.333 -178 -100s-55 -178 -55 -334v-328h-152v1292h152v-495c34.667 34 73.334 60.167 116.001 78.5s85.334 27.5 128.001 27.5c95.333 0 168 -28.333 218 -85
s75 -139.667 75 -249v-569h-154v553z" />
    <glyph glyph-name="i" unicode="i" 
d="M671 735h-275v146h437v-881h-162v735zM611 1292h226v-202h-226v202z" />
    <glyph glyph-name="j" unicode="j" 
d="M639 1292h220v-202h-220v202zM474 739v144.001h374v-824c0 -120 -23.167 -208.333 -69.5 -265s-118.5 -85 -216.5 -85h-189v146h129c75.333 0 127 17.167 155 51.5s42 100.166 42 197.499v635h-225z" />
    <glyph glyph-name="k" unicode="k" 
d="M226 1292h154v-737h12l352 338h224l-439 -391l477 -502h-219l-395 434h-12v-434h-154v1292z" />
    <glyph glyph-name="l" unicode="l" 
d="M723 0c-129.333 0 -219 27.167 -269 81.5s-75 164.5 -75 330.5v880h154v-852c0 -130 17 -211.667 51 -245s103 -50 207 -50h63v-145h-131z" />
    <glyph glyph-name="m" unicode="m" 
d="M199 893h143.001v-62c22.667 24 47.5 42 74.5 54s56.167 18 87.5 18s59.833 -8.5 85.5 -25.5s48.167 -42.5 67.5 -76.5c26.667 34 55.5 59.5 86.5 76.5s65.167 25.5 102.5 25.5c63.333 0 110.5 -25.5 141.5 -76.5s46.5 -128.5 46.5 -232.5v-594h-151v633
c0 43.333 -6.16699 75.666 -18.5 96.999s-31.5 32 -57.5 32c-38.667 0 -67.167 -21 -85.5 -63s-27.5 -107.667 -27.5 -197v-502h-151v639c0 44.667 -5.83301 76.334 -17.5 95.001s-31.167 28 -58.5 28c-40.667 0 -70.334 -20.333 -89.001 -61s-28 -107 -28 -199v-502h-151
v893z" />
    <glyph glyph-name="n" unicode="n" 
d="M224 893l152.001 0.00195312v-125c42.667 45.333 88.167 79.166 136.5 101.499s99.166 33.5 152.499 33.5c123.333 0 211.5 -34.833 264.5 -104.5s79.5 -192.5 79.5 -368.5v-430h-152v440c0 125.333 -14 211 -42 257s-76 69 -144 69c-53.333 0 -101 -11.333 -143 -34
s-76.333 -55.667 -103 -99c-18 -28.667 -30.667 -61.834 -38 -99.501s-11 -97.5 -11 -179.5v-26v-328h-152v893z" />
    <glyph glyph-name="o" unicode="o" 
d="M616 127c80 0 143.833 28.833 191.5 86.5s71.5 135.167 71.5 232.5c0 98 -24 175.833 -72 233.5s-111.667 86.5 -191 86.5s-142.833 -28.833 -190.5 -86.5s-71.5 -135.5 -71.5 -233.5c0 -97.333 23.833 -174.833 71.5 -232.5s111.167 -86.5 190.5 -86.5zM1038 446
c0 -138.667 -38.667 -250 -116 -334s-179.333 -126 -306 -126c-126 0 -227.667 42 -305 126s-116 195.333 -116 334s38.833 250.5 116.5 335.5s179.167 127.5 304.5 127.5c126.667 0 228.667 -42.333 306 -127s116 -196.667 116 -336z" />
    <glyph glyph-name="p" unicode="p" 
d="M617 135c78.667 0 139.667 28 183 84s65 134.667 65 236c0 94 -22.5 169 -67.5 225s-105.167 84 -180.5 84c-80 0 -143.667 -28.167 -191 -84.5s-71 -132.5 -71 -228.5c0 -97.333 23.5 -174.333 70.5 -231s110.833 -85 191.5 -85zM205 893l149.999 0.000976562v-109
c40 40.667 84 71 132 91s99.667 30 155 30c118 0 211.667 -40.833 281 -122.5s104 -192.834 104 -333.501c0 -142 -34.167 -253.667 -102.5 -335s-161.166 -122 -278.499 -122c-64.667 0 -120.5 9.66699 -167.5 29s-88.167 50 -123.5 92v-404h-150v1184z" />
    <glyph glyph-name="q" unicode="q" 
d="M617 764c-75.333 0 -135.5 -28 -180.5 -84s-67.5 -131 -67.5 -225c0 -101.333 21.667 -180 65 -236s104.333 -84 183 -84c80.667 0 144.5 28.333 191.5 85s70.5 133.667 70.5 231c0 96 -23.833 172.167 -71.5 228.5s-111.167 84.5 -190.5 84.5zM879 784
l-0.000976562 108.999h149v-1184h-149v404c-36.667 -42 -78.334 -72.667 -125.001 -92s-102 -29 -166 -29c-118.667 0 -212.167 40.667 -280.5 122s-102.5 193 -102.5 335c0 140.667 34.833 251.834 104.5 333.501s163.834 122.5 282.501 122.5
c54.667 0 105.834 -10 153.501 -30s92.167 -50.333 133.5 -91z" />
    <glyph glyph-name="r" unicode="r" 
d="M288 893h152.002v-105c32.667 39.333 69.5 68.666 110.5 87.999s86.167 29 135.5 29c81.333 0 144.666 -24 189.999 -72s68 -115.333 68 -202v-6h-154v12c0 40.667 -9.66699 72.334 -29 95.001s-46.333 34 -81 34c-72.667 0 -130.834 -32.833 -174.501 -98.5
s-65.5 -155.167 -65.5 -268.5v-399h-152v893z" />
    <glyph glyph-name="s" unicode="s" 
d="M406 227c7.33301 -33.333 27.001 -58.3369 59.001 -75.0039s77.333 -25 136 -25c73.333 0 128.166 10.167 164.499 30.5s54.5 51.166 54.5 92.499c0 26.667 -8.83301 47.5 -26.5 62.5s-54.5 30.167 -110.5 45.5l-139 39c-90.667 25.333 -157 58.333 -199 99
s-63 92.334 -63 155.001c0 86.667 30.5 151 91.5 193s153.833 63 278.5 63c96.667 0 170 -21.333 220 -64s75.667 -105.667 77 -189l-153 -1c-3.33301 42.667 -17.666 72.5 -42.999 89.5s-70 25.5 -134 25.5c-61.333 0 -107.333 -9.16699 -138 -27.5
s-46 -46.166 -46 -83.499c0 -29.333 11 -52.666 33 -69.999s67.667 -34.666 137 -51.999l133 -35c78.667 -20 138.667 -50.667 180 -92s62 -90.666 62 -147.999c0 -85.333 -32.333 -152.333 -97 -201s-154 -73 -268 -73c-115.333 0 -201.833 19.167 -259.5 57.5
s-91.834 99.5 -102.501 183.5h153z" />
    <glyph glyph-name="t" unicode="t" 
d="M470 344l-0.00488281 398.997h-184v144h196v225l154 43v-268h311v-144h-323v-401c0 -74.667 10.667 -127.5 32 -158.5s57 -46.5 107 -46.5c24.667 0 51.834 4.83301 81.501 14.5s63.834 24.834 102.501 45.501v-152c-37.333 -17.333 -74.666 -30.166 -111.999 -38.499
s-75.666 -12.5 -114.999 -12.5c-48 0 -90.167 9.33301 -126.5 28s-65.166 45.334 -86.499 80.001c-13.333 22 -22.833 46.667 -28.5 74s-8.5 68.333 -8.5 123v45z" />
    <glyph glyph-name="u" unicode="u" 
d="M1009 0l-152.001 0.00292969v125c-44 -46.667 -90.333 -80.834 -139 -102.501s-102.667 -32.5 -162 -32.5c-60 0 -113.333 11.667 -160 35s-84 56.666 -112 99.999c-21.333 33.333 -36.666 71.666 -45.999 114.999s-14 117.666 -14 222.999v430h152v-438
c0 -127.333 14.667 -213.833 44 -259.5s79.333 -68.5 150 -68.5c49.333 0 95 11.667 137 35s75.667 56 101 98c17.333 28.667 29.833 61.834 37.5 99.501s11.5 97.5 11.5 179.5v26v328h152v-893z" />
    <glyph glyph-name="v" unicode="v" 
d="M175 893h166l272 -766h15l272 766h158l-326 -893h-231z" />
    <glyph glyph-name="w" unicode="w" 
d="M191 893l159 0.00195312l64 -541c0 -2 0.666992 -6.33301 2 -13c8 -58.667 12 -114.334 12 -167.001l100 371h179l102 -371c3.33301 32.667 6.5 66.667 9.5 102s4.5 54.666 4.5 57.999l60 561h159l-114 -893h-203l-111 395l-106 -395h-203z" />
    <glyph glyph-name="x" unicode="x" 
d="M518 449l-307 448h190l215 -326l213 326h179l-295 -436l325 -461h-194l-234 338l-233 -338h-182z" />
    <glyph glyph-name="y" unicode="y" 
d="M153 893l180 -0.000976562l299 -524l281 524h167l-557 -1026c-36.667 -67.333 -69.167 -111.166 -97.5 -131.499s-68.833 -30.5 -121.5 -30.5h-82v148h76c14.667 0 27.5 3 38.5 9s20.167 15 27.5 27l184 334z" />
    <glyph glyph-name="z" unicode="z" 
d="M263 174l508 563h-473v146h651v-172l-499 -555h520v-146h-707v164z" />
    <glyph glyph-name="braceleft" unicode="{" 
d="M218 721l75.998 -0.000976562c69.333 0 117.333 10.5 144 31.5s40 56.833 40 107.5c0 1.33301 0.5 9.5 1.5 24.5s1.83301 29.167 2.5 42.5l4 60c8 114.667 41.5 196 100.5 244s158.167 72 297.5 72c1.33301 0 9.5 0.333008 24.5 1s29.167 1 42.5 1h64v-158h-64
c-130 0 -210.333 -12.667 -241 -38s-48.667 -77 -54 -155l-8 -100c-4 -61.333 -15.667 -108.666 -35 -141.999s-48 -56.333 -86 -69c38 -12.667 66.667 -35.667 86 -69s31 -80.666 35 -141.999l8 -100c5.33301 -77.333 23.333 -128.833 54 -154.5s111 -38.5 241 -38.5h64
v-157h-64c-3.33301 0 -13.666 0.333008 -30.999 1s-33.666 1 -48.999 1c-132 0 -227.333 24.167 -286 72.5s-91.667 129.166 -99 242.499l-4 59v12c-7.33301 130 -70 195 -188 195h-76v156z" />
    <glyph glyph-name="bar" unicode="|" 
d="M531 1518h170v-2063h-170v2063z" />
    <glyph glyph-name="braceright" unicode="}" 
d="M937 565c-118 0 -180.332 -63.3369 -186.999 -190.004c-0.666992 -7.33301 -1 -13 -1 -17l-2 -58c-8 -116 -41.667 -197.667 -101 -245s-163 -71 -311 -71c-4 0 -12.167 -0.333008 -24.5 -1s-22.5 -1 -30.5 -1h-62v157h121c91.333 0 152.5 13 183.5 39
s49.167 77.333 54.5 154l6 100c4 60.667 15.833 107.834 35.5 141.501s48.834 56.834 87.501 69.501c-38.667 12.667 -67.834 35.834 -87.501 69.501s-31.5 80.834 -35.5 141.501l-6 100c-5.33301 78 -23.333 129.667 -54 155s-111 38 -241 38h-64v158h62
c8.66699 0 21.667 -0.333008 39 -1s30.666 -1 39.999 -1c133.333 0 229.5 -24.5 288.5 -73.5s92.167 -129.833 99.5 -242.5l2 -59c0 -4 0.333008 -10.333 1 -19c8 -125.333 70.333 -188 187 -188h78v-156h-78z" />
    <glyph glyph-name="Euro" 
d="M834 580l-33.998 -136.003h-299c9.33301 -94.667 36.333 -169.5 81 -224.5s100 -82.5 166 -82.5c54 0 100.167 12.667 138.5 38s58.5 57 60.5 95h178c-13.333 -90 -52.333 -160.5 -117 -211.5s-147.667 -76.5 -249 -76.5c-78.667 0 -148.334 16.333 -209.001 49
s-110 80.334 -148 143.001c-20.667 32.667 -38.667 73.167 -54 121.5s-26 97.833 -32 148.5h-209l37 136h162c-0.666992 8.66699 -1.16699 18.834 -1.5 30.501s-0.5 28.834 -0.5 51.501c0 9.33301 0.166992 19 0.5 29s1.5 25.333 3.5 46h-182l35 135h159
c19.333 128.667 69.5 233 150.5 313s178.5 120 292.5 120c102.667 0 185.167 -24.833 247.5 -74.5s99.166 -119.834 110.499 -210.501h-180c-3.33301 42.667 -21.5 75.834 -54.5 99.501s-77.833 35.5 -134.5 35.5c-60.667 0 -113 -25.167 -157 -75.5s-74 -119.5 -90 -207.5
h407l-35 -135h-384c-2 -20 -3.33301 -36.167 -4 -48.5s-1 -23.5 -1 -33.5c0 -21.333 0.166992 -37 0.5 -47s0.833008 -19.333 1.5 -28h344z" />
    <glyph glyph-name="Euro" unicode="&#x20ac;" 
d="M834 580l-33.998 -136.003h-299c9.33301 -94.667 36.333 -169.5 81 -224.5s100 -82.5 166 -82.5c54 0 100.167 12.667 138.5 38s58.5 57 60.5 95h178c-13.333 -90 -52.333 -160.5 -117 -211.5s-147.667 -76.5 -249 -76.5c-78.667 0 -148.334 16.333 -209.001 49
s-110 80.334 -148 143.001c-20.667 32.667 -38.667 73.167 -54 121.5s-26 97.833 -32 148.5h-209l37 136h162c-0.666992 8.66699 -1.16699 18.834 -1.5 30.501s-0.5 28.834 -0.5 51.501c0 9.33301 0.166992 19 0.5 29s1.5 25.333 3.5 46h-182l35 135h159
c19.333 128.667 69.5 233 150.5 313s178.5 120 292.5 120c102.667 0 185.167 -24.833 247.5 -74.5s99.166 -119.834 110.499 -210.501h-180c-3.33301 42.667 -21.5 75.834 -54.5 99.501s-77.833 35.5 -134.5 35.5c-60.667 0 -113 -25.167 -157 -75.5s-74 -119.5 -90 -207.5
h407l-35 -135h-384c-2 -20 -3.33301 -36.167 -4 -48.5s-1 -23.5 -1 -33.5c0 -21.333 0.166992 -37 0.5 -47s0.833008 -19.333 1.5 -28h344z" />
    <glyph glyph-name="nonbreakingspace" unicode="&#xa0;" 
 />
    <glyph glyph-name="sterling" unicode="&#xa3;" 
d="M219 166h128.997l101 426h-183v153h217l52 211c28 117.333 66.833 204.5 116.5 261.5s111.167 85.5 184.5 85.5c32.667 0 63.334 -6 92.001 -18s57.334 -30.667 86.001 -56v-162h-47c-24 30 -45.167 50.833 -63.5 62.5s-37.5 17.5 -57.5 17.5
c-34 0 -60.667 -12.5 -80 -37.5s-37.666 -73.833 -54.999 -146.5l-52 -218h181v-153h-217l-101 -426h492v-156h-795v156z" />
    <glyph glyph-name="currency" unicode="&#xa4;" 
d="M834 580l-33.998 -136.003h-299c9.33301 -94.667 36.333 -169.5 81 -224.5s100 -82.5 166 -82.5c54 0 100.167 12.667 138.5 38s58.5 57 60.5 95h178c-13.333 -90 -52.333 -160.5 -117 -211.5s-147.667 -76.5 -249 -76.5c-78.667 0 -148.334 16.333 -209.001 49
s-110 80.334 -148 143.001c-20.667 32.667 -38.667 73.167 -54 121.5s-26 97.833 -32 148.5h-209l37 136h162c-0.666992 8.66699 -1.16699 18.834 -1.5 30.501s-0.5 28.834 -0.5 51.501c0 9.33301 0.166992 19 0.5 29s1.5 25.333 3.5 46h-182l35 135h159
c19.333 128.667 69.5 233 150.5 313s178.5 120 292.5 120c102.667 0 185.167 -24.833 247.5 -74.5s99.166 -119.834 110.499 -210.501h-180c-3.33301 42.667 -21.5 75.834 -54.5 99.501s-77.833 35.5 -134.5 35.5c-60.667 0 -113 -25.167 -157 -75.5s-74 -119.5 -90 -207.5
h407l-35 -135h-384c-2 -20 -3.33301 -36.167 -4 -48.5s-1 -23.5 -1 -33.5c0 -21.333 0.166992 -37 0.5 -47s0.833008 -19.333 1.5 -28h344z" />
    <glyph glyph-name="yen" unicode="&#xa5;" 
d="M530 362h-307v150h307v193l-352 489h189l241 -334l244 334h203l-371 -489v-193h307v-150h-307v-362h-154v362z" />
    <glyph glyph-name="section" unicode="&#xa7;" 
d="M546 743c-31.333 3.33301 -54.667 6.83398 -70 10.501s-29.666 8.5 -42.999 14.5c-18.667 -18 -32.167 -34.667 -40.5 -50s-12.5 -31.333 -12.5 -48c0 -32.667 13.667 -56.834 41 -72.501s75 -26.5 143 -32.5l133 -10c19.333 -2 38.166 -4.5 56.499 -7.5
s36.5 -6.5 54.5 -10.5c18 16 31 31 39 45s12 29 12 45c0 29.333 -14.333 52.5 -43 69.5s-73.667 28.5 -135 34.5zM600.999 410.001l-140 9.99609c-75.333 6 -136.333 30.833 -183 74.5s-70 97.834 -70 162.501c0 42 8.33301 77.833 25 107.5s43 55.5 79 77.5
c-21.333 20 -37.166 43.333 -47.499 70s-15.5 57.334 -15.5 92.001c0 91.333 35.167 164.333 105.5 219s165.5 82 285.5 82c110.667 0 197 -25 259 -75s93 -119.333 93 -208h-177c-2.66699 42.667 -18.5 74.834 -47.5 96.501s-71.5 32.5 -127.5 32.5
c-67.333 0 -119.666 -11.5 -156.999 -34.5s-56 -55.167 -56 -96.5c0 -38 14 -66.5 42 -85.5s93.333 -34.833 196 -47.5l122 -17c75.333 -8.66699 133.833 -33.667 175.5 -75s62.5 -94 62.5 -158c0 -37.333 -6.5 -69.666 -19.5 -96.999s-33.167 -50.333 -60.5 -69
c27.333 -26.667 48.166 -56.834 62.499 -90.501s21.5 -69.834 21.5 -108.501c0 -88 -36.5 -158.333 -109.5 -211s-171.5 -79 -295.5 -79c-126 0 -227.5 28 -304.5 84s-115.5 127 -115.5 213v12h178c10 -53.333 34.167 -92.666 72.5 -117.999s92.5 -38 162.5 -38
c71.333 0 128.166 12.833 170.499 38.5s63.5 59.834 63.5 102.501c0 42 -15.167 72.667 -45.5 92s-98.5 33.333 -204.5 42z" />
    <glyph glyph-name="dieresis" unicode="&#xa8;" 
d="M692 1288h172v-262h-172v262zM369 1288h172v-262h-172v262z" />
    <glyph glyph-name="acute" unicode="&#xb4;" 
d="M584 1294h221l-208 -280h-170z" />
    <glyph glyph-name="mu" unicode="&#xb5;" horiz-adv-x="1567" 
d="M1245 438c0 127.333 -11.499 213.832 -34.499 259.499s-61.833 68.5 -116.5 68.5c-42.667 0 -81 -11.167 -115 -33.5s-61.333 -54.166 -82 -95.499c-13.333 -26.667 -22.833 -57.167 -28.5 -91.5s-8.5 -80.833 -8.5 -139.5v-78v-328h-149v438
c0 130 -11.833 217.167 -35.5 261.5s-64.5 66.5 -122.5 66.5c-38.667 0 -75 -11.333 -109 -34s-60.333 -53.667 -79 -93c-14 -28 -24 -61 -30 -99s-9 -97.333 -9 -178v-34v-328h-154v893h154v-102c39.333 38 79.666 66.5 120.999 85.5s84 28.5 128 28.5
c62.667 0 114.334 -12.5 155.001 -37.5s73 -64.167 97 -117.5c32.667 52 73.167 90.833 121.5 116.5s104.166 38.5 167.499 38.5c90 0 159 -28.5 207 -85.5s72 -139.833 72 -248.5v-571h-150v438z" />
    <glyph glyph-name="cedilla" unicode="&#xb8;" 
d="M600 33h151l-82 -326h-188z" />
    <glyph glyph-name="Agrave" unicode="&#xc0;" 
d="M608 1047l-135 -543h271zM496 1202h239l316 -1202h-185l-84 346h-348l-86 -346h-166zM632 1311l-208 280h221l155 -280h-168z" />
    <glyph glyph-name="Acircumflex" unicode="&#xc2;" horiz-adv-x="3699" 
d="M6 637h3687v-238h-3687v238z" />
    <glyph glyph-name="Adieresis" unicode="&#xc4;" 
d="M610 944l-151 -536h307zM537 1202h161l365 -1202h-180l-74 252h-393l-74 -252h-172zM870 1300h170v-231h-170v231zM191 1300h170v-231h-170v231z" />
    <glyph glyph-name="Aring" unicode="&#xc5;" 
d="M615 895c60.667 0 107.332 12 139.999 36s49 57.667 49 101s-16.167 76.666 -48.5 99.999s-79.166 35 -140.499 35c-60.667 0 -107.167 -11.667 -139.5 -35s-48.5 -56.666 -48.5 -99.999c0 -44 16.167 -77.833 48.5 -101.5s78.833 -35.5 139.5 -35.5zM770.998 391
l-92 375h-133l-92 -375h317zM830.998 815l214.999 -814.998h-179l-57 231h-395l-56 -231h-172l213 813c-40 21.333 -71.5 51.333 -94.5 90s-34.5 81.667 -34.5 129c0 82 31.167 147.667 93.5 197s145.833 74 250.5 74s188.334 -24.833 251.001 -74.5s94 -115.167 94 -196.5
c0 -46.667 -11 -88.334 -33 -125.001s-54 -67.334 -96 -92.001z" />
    <glyph glyph-name="AE" unicode="&#xc6;" 
d="M561 1034l-115 -575h197l-35 575h-47zM440 1184h586v-150h-269l25 -336h235v-153h-223l27 -379h213v-156h-365l-16 293h-238l-59 -303h-158z" />
    <glyph glyph-name="Ccedilla" unicode="&#xc7;" 
d="M971 918l-177.999 -0.000976562c-3.33301 42.667 -17 75.167 -41 97.5s-57.333 33.5 -100 33.5c-68 0 -119.833 -38.333 -155.5 -115s-53.5 -187.334 -53.5 -332.001c0 -152 17.667 -267.833 53 -347.5s87.333 -119.5 156 -119.5c43.333 0 78 12 104 36
s39.667 56.333 41 97h178c-11.333 -89.333 -44.666 -159.666 -99.999 -210.999s-125.666 -77 -210.999 -77c-130 0 -230.167 54.333 -300.5 163s-105.5 264.334 -105.5 467.001c0 183.333 36.167 327.833 108.5 433.5s170.166 158.5 293.499 158.5
c87.333 0 158.666 -25.333 213.999 -76s87.666 -120 96.999 -208zM591.001 32.999h151l-82 -326h-188z" />
    <glyph glyph-name="Egrave" unicode="&#xc8;" 
d="M253 1184h709v-148h-539v-331h474v-156h-474v-381h557v-158h-727v1174zM615 1311l-208 280h221l155 -280h-168z" />
    <glyph glyph-name="Eacute" unicode="&#xc9;" 
d="M253 1184h709v-148h-539v-331h474v-156h-474v-381h557v-158h-727v1174zM564 1591h221l-208 -280h-170z" />
    <glyph glyph-name="Ecircumflex" unicode="&#xca;" 
d="M262 1184h709v-148h-539v-331h474v-156h-474v-381h557v-158h-727v1174zM471 1585h271l223 -274h-199l-162 172l-159 -172h-201z" />
    <glyph glyph-name="Edieresis" unicode="&#xcb;" 
d="M253 1184h709v-148h-539v-331h474v-156h-474v-381h557v-158h-727v1174zM671 1585h172v-262h-172v262zM348 1585h172v-262h-172v262z" />
    <glyph glyph-name="Icircumflex" unicode="&#xce;" 
d="M873 383v811h170v-848c0 -132 -22.5 -226 -67.5 -282s-118.167 -84 -219.5 -84c-22.667 0 -48.334 1.5 -77.001 4.5s-61.667 8.16699 -99 15.5v170c34.667 -10 65.334 -17.667 92.001 -23s49 -8 67 -8c44 0 77.333 14.333 100 43s34 71 34 127v74zM189 1194h172v-1194
h-172v1194z" />
    <glyph glyph-name="Idieresis" unicode="&#xcf;" 
d="M211 1292h225v-202h-225v202zM246 893h153v-893h-153v893zM795 1292h227v-202h-227v202zM985 893v-833.999c0 -120 -23.167 -208.333 -69.5 -265s-118.833 -85 -217.5 -85h-188v146h129c75.333 0 127 17.167 155 51.5s42 100.166 42 197.499v789h149z" />
    <glyph glyph-name="Ntilde" unicode="&#xd1;" 
d="M603 1092l-45.001 32c-10 7.33301 -21.167 13 -33.5 17s-24.5 6 -36.5 6c-19.333 0 -34.333 -7.83301 -45 -23.5s-16 -37.834 -16 -66.501h-162v4c0 72 19.333 130.333 58 175s88.334 67 149.001 67c28.667 0 55.167 -4.16699 79.5 -12.5s49.833 -22.166 76.5 -41.499
l45 -32c10 -8 20.833 -13.833 32.5 -17.5s23.834 -5.5 36.501 -5.5c20 0 35.333 7.66699 46 23s16.667 38.333 18 69h162c0 -73.333 -19.5 -133 -58.5 -179s-89.167 -69 -150.5 -69c-28 0 -53.833 4 -77.5 12s-49.834 22 -78.501 42zM244.999 887h215l370 -651v651h158v-887
h-217l-369 651v-651h-157v887z" />
    <glyph glyph-name="Ograve" unicode="&#xd2;" 
d="M531 1253h170v-1798h-170v1798z" />
    <glyph glyph-name="Oacute" unicode="&#xd3;" 
d="M278 1221h677v-1160h-677v1160z" />
    <glyph glyph-name="Ocircumflex" unicode="&#xd4;" 
d="M213 -190h807v-201h-807v201z" />
    <glyph glyph-name="Odieresis" unicode="&#xd6;" 
d="M618 141c70.667 0 127.332 34.001 169.999 102.001s64 159.667 64 275s-21.167 206.666 -63.5 273.999s-99.166 101 -170.499 101c-72 0 -129.167 -33.5 -171.5 -100.5s-63.5 -158.5 -63.5 -274.5c0 -116.667 21.167 -208.667 63.5 -276s99.5 -101 171.5 -101z
M196.998 518.001c0 152 40.334 278.5 121.001 379.5s180 151.5 298 151.5s217.5 -50.5 298.5 -151.5s121.5 -227.5 121.5 -379.5c0 -153.333 -40.333 -280.333 -121 -381s-180.334 -151 -299.001 -151c-118 0 -217.333 50.5 -298 151.5s-121 227.833 -121 380.5z
M871.999 1298h170v-233h-170v233zM189.999 1298h170v-233h-170v233z" />
    <glyph glyph-name="Oslash" unicode="&#xd8;" 
d="M668 991c-7.33301 0.666992 -15.333 1.16699 -24 1.5s-19 0.5 -31 0.5c-82 0 -142.333 -30.333 -181 -91s-58 -156 -58 -286c0 -84 6.16699 -154.667 18.5 -212s31.5 -103.333 57.5 -138zM566 205c14 -2 26.167 -3.5 36.5 -4.5s18.833 -1.5 25.5 -1.5
c78 0 136 32.5 174 97.5s57 164.833 57 299.5c0 74.667 -6.66699 139.667 -20 195s-33.333 101 -60 137zM527 65l-30.001 -103.999h-138l43 143c-68 48 -118.667 112.833 -152 194.5s-50 181.5 -50 299.5c0 174.667 34.167 308.167 102.5 400.5s167.166 138.5 296.499 138.5
c15.333 0 31.333 -0.833008 48 -2.5s36.334 -4.16699 59.001 -7.5l30 100h133l-43 -140c68.667 -48 120.334 -113.333 155.001 -196s52 -180.334 52 -293.001c0 -176 -33.5 -310.5 -100.5 -403.5s-163.833 -139.5 -290.5 -139.5c-12 0 -27.167 0.833008 -45.5 2.5
s-41.5 4.16699 -69.5 7.5z" />
    <glyph glyph-name="Ugrave" unicode="&#xd9;" 
d="M218 1194h170v-764c0 -110.667 17.667 -186.5 53 -227.5s95 -61.5 179 -61.5c82.667 0 141.834 21.667 177.501 65s53.5 117.333 53.5 222v766h164v-793c0 -143.333 -33.333 -249 -100 -317s-170 -102 -310 -102c-70.667 0 -133.834 12.5 -189.501 37.5
s-99.5 60.833 -131.5 107.5c-24 34 -41 73.5 -51 118.5s-15 122.833 -15 233.5v715zM635 1311l-208 280h221l155 -280h-168z" />
    <glyph glyph-name="Ucircumflex" unicode="&#xdb;" 
d="M218 1194h170v-764c0 -110.667 17.667 -186.5 53 -227.5s95 -61.5 179 -61.5c82.667 0 141.834 21.667 177.501 65s53.5 117.333 53.5 222v766h164v-793c0 -143.333 -33.333 -249 -100 -317s-170 -102 -310 -102c-70.667 0 -133.834 12.5 -189.501 37.5
s-99.5 60.833 -131.5 107.5c-24 34 -41 73.5 -51 118.5s-15 122.833 -15 233.5v715zM482 1585h271l223 -274h-199l-162 172l-159 -172h-201z" />
    <glyph glyph-name="Udieresis" unicode="&#xdc;" 
d="M783 1296h258v-131h-258v131zM192 1296h258v-131h-258v131zM1041 479l-0.000976562 -41.002c0 -69.333 -4.33301 -123.666 -13 -162.999s-22.667 -75.666 -42 -108.999c-36 -60.667 -85.167 -106.5 -147.5 -137.5s-135.166 -46.5 -218.499 -46.5
c-147.333 0 -255.5 39.833 -324.5 119.5s-103.5 205.5 -103.5 377.5v506h169v-450c0 -148.667 20 -251.5 60 -308.5s107.667 -85.5 203 -85.5c91.333 0 156.5 29.167 195.5 87.5s58.5 160.5 58.5 306.5v450h163v-506z" />
    <glyph glyph-name="germandbls" unicode="&#xdf;" 
d="M216 807c0 168 30.167 291.835 90.5 371.502s153.833 119.5 280.5 119.5c119.333 0 214 -30.667 284 -92s105 -144.666 105 -249.999c0 -58.667 -12.833 -110.334 -38.5 -155.001s-64.834 -83.667 -117.501 -117c69.333 -25.333 119.5 -63.833 150.5 -115.5
s46.5 -123.834 46.5 -216.501c0 -110 -27.5 -196.167 -82.5 -258.5s-130.5 -93.5 -226.5 -93.5h-43v147h20c58 0 101.167 18.167 129.5 54.5s42.5 92.166 42.5 167.499c0 76 -20.333 134.167 -61 174.5s-99.667 60.5 -177 60.5h-12v156c68 0 120.167 17 156.5 51
s54.5 83 54.5 147c0 60.667 -18.667 108.667 -56 144s-88.333 53 -153 53c-85.333 0 -146.166 -24.667 -182.499 -74s-54.5 -137.333 -54.5 -264v-817h-156v807z" />
    <glyph glyph-name="agrave" unicode="&#xe0;" 
d="M841 417c-12 1.33301 -27.668 2.33301 -47.001 3c-27.333 1.33301 -45 2 -53 2c-113.333 0 -197.666 -13.167 -252.999 -39.5s-83 -66.5 -83 -120.5c0 -38 14.667 -69.333 44 -94s67.333 -37 114 -37c78 0 143 26.5 195 79.5s79.667 121.833 83 206.5zM840.999 115
c-36.667 -42.667 -78.6689 -74.501 -126.002 -95.501s-99.333 -31.5 -156 -31.5c-95.333 0 -171.833 25.667 -229.5 77s-86.5 119 -86.5 203c0 102 42.333 176.667 127 224s217 71 397 71c8.66699 0 21.167 -0.333008 37.5 -1s28.5 -1 36.5 -1v6
c0 70.667 -17.667 121.834 -53 153.501s-92.666 47.5 -171.999 47.5c-43.333 0 -76.833 -5.66699 -100.5 -17s-39.5 -29 -47.5 -53h-167c8 69.333 39.167 121.833 93.5 157.5s129.5 53.5 225.5 53.5c128.667 0 222.334 -27.833 281.001 -83.5s88 -144.5 88 -266.5v-559h-148
v115zM657.997 1014l-208 280h221l155 -280h-168z" />
    <glyph glyph-name="aacute" unicode="&#xe1;" 
d="M841 417c-12 1.33301 -27.668 2.33301 -47.001 3c-27.333 1.33301 -45 2 -53 2c-113.333 0 -197.666 -13.167 -252.999 -39.5s-83 -66.5 -83 -120.5c0 -38 14.667 -69.333 44 -94s67.333 -37 114 -37c78 0 143 26.5 195 79.5s79.667 121.833 83 206.5zM840.999 115
c-36.667 -42.667 -78.6689 -74.501 -126.002 -95.501s-99.333 -31.5 -156 -31.5c-95.333 0 -171.833 25.667 -229.5 77s-86.5 119 -86.5 203c0 102 42.333 176.667 127 224s217 71 397 71c8.66699 0 21.167 -0.333008 37.5 -1s28.5 -1 36.5 -1v6
c0 70.667 -17.667 121.834 -53 153.501s-92.666 47.5 -171.999 47.5c-43.333 0 -76.833 -5.66699 -100.5 -17s-39.5 -29 -47.5 -53h-167c8 69.333 39.167 121.833 93.5 157.5s129.5 53.5 225.5 53.5c128.667 0 222.334 -27.833 281.001 -83.5s88 -144.5 88 -266.5v-559h-148
v115zM606.997 1294h221l-208 -280h-170z" />
    <glyph glyph-name="acircumflex" unicode="&#xe2;" 
d="M836 417c-12 1.33301 -27.668 2.33301 -47.001 3c-27.333 1.33301 -45 2 -53 2c-113.333 0 -197.666 -13.167 -252.999 -39.5s-83 -66.5 -83 -120.5c0 -38 14.667 -69.333 44 -94s67.333 -37 114 -37c78 0 143 26.5 195 79.5s79.667 121.833 83 206.5zM835.999 115
c-36.667 -42.667 -78.6689 -74.501 -126.002 -95.501s-99.333 -31.5 -156 -31.5c-95.333 0 -171.833 25.667 -229.5 77s-86.5 119 -86.5 203c0 102 42.333 176.667 127 224s217 71 397 71c8.66699 0 21.167 -0.333008 37.5 -1s28.5 -1 36.5 -1v6
c0 70.667 -17.667 121.834 -53 153.501s-92.666 47.5 -171.999 47.5c-43.333 0 -76.833 -5.66699 -100.5 -17s-39.5 -29 -47.5 -53h-167c8 69.333 39.167 121.833 93.5 157.5s129.5 53.5 225.5 53.5c128.667 0 222.334 -27.833 281.001 -83.5s88 -144.5 88 -266.5v-559h-148
v115zM499.997 1288h271l223 -274h-199l-162 172l-159 -172h-201z" />
    <glyph glyph-name="adieresis" unicode="&#xe4;" 
d="M841 417c-12 1.33301 -27.668 2.33301 -47.001 3c-27.333 1.33301 -45 2 -53 2c-113.333 0 -197.666 -13.167 -252.999 -39.5s-83 -66.5 -83 -120.5c0 -38 14.667 -69.333 44 -94s67.333 -37 114 -37c78 0 143 26.5 195 79.5s79.667 121.833 83 206.5zM840.999 115
c-36.667 -42.667 -78.6689 -74.501 -126.002 -95.501s-99.333 -31.5 -156 -31.5c-95.333 0 -171.833 25.667 -229.5 77s-86.5 119 -86.5 203c0 102 42.333 176.667 127 224s217 71 397 71c8.66699 0 21.167 -0.333008 37.5 -1s28.5 -1 36.5 -1v6
c0 70.667 -17.667 121.834 -53 153.501s-92.666 47.5 -171.999 47.5c-43.333 0 -76.833 -5.66699 -100.5 -17s-39.5 -29 -47.5 -53h-167c8 69.333 39.167 121.833 93.5 157.5s129.5 53.5 225.5 53.5c128.667 0 222.334 -27.833 281.001 -83.5s88 -144.5 88 -266.5v-559h-148
v115zM713.997 1288h172v-262h-172v262zM390.997 1288h172v-262h-172v262z" />
    <glyph glyph-name="aring" unicode="&#xe5;" 
d="M634 881c62.667 0 110.832 12.333 144.499 37s50.5 60 50.5 106c0 46.667 -16.667 82.167 -50 106.5s-81.666 36.5 -144.999 36.5c-62.667 0 -110.667 -12.167 -144 -36.5s-50 -59.833 -50 -106.5s16.667 -82.167 50 -106.5s81.333 -36.5 144 -36.5zM840.998 417
c-12 1.33301 -27.6689 2.33301 -47.002 3c-27.333 1.33301 -45 2 -53 2c-113.333 0 -197.666 -13.167 -252.999 -39.5s-83 -66.5 -83 -120.5c0 -38.667 14.833 -70.167 44.5 -94.5s68.834 -36.5 117.501 -36.5c77.333 0 141.833 26.667 193.5 80s78.5 122 80.5 206z
M840.996 115c-35.333 -42 -76.834 -73.668 -124.501 -95.001s-100.167 -32 -157.5 -32c-95.333 0 -171.833 25.667 -229.5 77s-86.5 119 -86.5 203c0 102 42.333 176.667 127 224s217 71 397 71c8.66699 0 21.167 -0.333008 37.5 -1s28.5 -1 36.5 -1v19
c0 56 -17.833 100 -53.5 132s-85.5 48 -149.5 48c-47.333 0 -87.833 -9.33301 -121.5 -28s-57.834 -45 -72.501 -79h-153c2.66699 42.667 14.334 78.167 35.001 106.5s50.334 49.5 89.001 63.5c-37.333 22.667 -65.333 50.834 -84 84.501s-28 73.167 -28 118.5
c0 82 29.5 146.833 88.5 194.5s139.833 71.5 242.5 71.5c101.333 0 182 -23.833 242 -71.5s90 -111.167 90 -190.5c0 -45.333 -8.16699 -83.833 -24.5 -115.5s-43.5 -62.167 -81.5 -91.5c46 -16 79 -45.667 99 -89s30 -109 30 -197v-537h-148v115z" />
    <glyph glyph-name="ae" unicode="&#xe6;" 
d="M692 631v-99h191v103c0 50 -7.5 85.667 -22.5 107s-39.833 32 -74.5 32c-33.333 0 -57.333 -10.833 -72 -32.5s-22 -58.5 -22 -110.5zM545 305l-0.000976562 93.999h-45c-53.333 0 -91.333 -11.667 -114 -35s-34 -62.666 -34 -117.999c0 -40.667 7.33301 -70.667 22 -90
s37.334 -29 68.001 -29c36.667 0 63 13.667 79 41s24 73 24 137zM544.999 531.999l-0.000976562 105c0 46.667 -7.83301 81.167 -23.5 103.5s-39.167 33.5 -70.5 33.5c-30.667 0 -53.167 -9.33301 -67.5 -28s-22.833 -49 -25.5 -91h-155v7c0 76 21.5 135.833 64.5 179.5
s101.833 65.5 176.5 65.5c43.333 0 80.5 -9.16699 111.5 -27.5s51.167 -43.166 60.5 -74.499c15.333 34.667 37.833 60.334 67.5 77.001s68.167 25 115.5 25c76.667 0 135 -25 175 -75s60 -123.333 60 -220v-213h-342v-127c0 -50.667 8 -87.834 24 -111.501
s41 -35.5 75 -35.5c28.667 0 51.167 9.66699 67.5 29s24.5 45.666 24.5 78.999v23h151v-6c0 -88.667 -19 -154.5 -57 -197.5s-96.667 -64.5 -176 -64.5c-46.667 0 -85.167 8.66699 -115.5 26s-52.833 43.333 -67.5 78c-16 -35.333 -39.667 -61.833 -71 -79.5
s-69.666 -26.5 -114.999 -26.5c-76 0 -133.833 22.167 -173.5 66.5s-59.5 109.5 -59.5 195.5c0 104 22.5 177.333 67.5 220s122.833 64 233.5 64h45z" />
    <glyph glyph-name="ccedilla" unicode="&#xe7;" 
d="M950 647h-165.999c-3.33301 38.667 -17 68.167 -41 88.5s-57.667 30.5 -101 30.5c-70.667 0 -123 -24.667 -157 -74s-51 -125 -51 -227c0 -112 16.333 -196.333 49 -253s81.667 -85 147 -85c47.333 0 84.166 12.833 110.499 38.5s41.5 64.167 45.5 115.5h172
c-4 -94.667 -34.667 -167.167 -92 -217.5s-137.333 -75.5 -240 -75.5c-110 0 -196.167 40.5 -258.5 121.5s-93.5 193.167 -93.5 336.5c0 149.333 32.5 262.5 97.5 339.5s160.167 115.5 285.5 115.5c88.667 0 158.5 -22.167 209.5 -66.5s78.833 -106.833 83.5 -187.5z
M586.001 33h151l-82 -326h-188z" />
    <glyph glyph-name="egrave" unicode="&#xe8;" 
d="M845 557c-7.33301 68 -30 120.499 -68 157.499s-88.333 55.5 -151 55.5c-60.667 0 -111.5 -18.667 -152.5 -56s-68.167 -89.666 -81.5 -156.999h453zM785 194.999l183 -0.00195312c-10.667 -65.333 -44.334 -116.5 -101.001 -153.5s-129.667 -55.5 -219 -55.5
c-133.333 0 -237.666 40.667 -312.999 122s-113 195 -113 341c0 142 37.333 253.833 112 335.5s176 122.5 304 122.5c119.333 0 211.333 -41.667 276 -125s97 -202.666 97 -357.999v-6h-619v-10c0 -87.333 22.667 -155.666 68 -204.999s107.333 -74 186 -74
c38 0 68.667 5.5 92 16.5s39 27.5 47 49.5zM635 1014l-208 280h221l155 -280h-168z" />
    <glyph glyph-name="eacute" unicode="&#xe9;" 
d="M845 557c-7.33301 68 -30 120.499 -68 157.499s-88.333 55.5 -151 55.5c-60.667 0 -111.5 -18.667 -152.5 -56s-68.167 -89.666 -81.5 -156.999h453zM785 194.999l183 -0.00195312c-10.667 -65.333 -44.334 -116.5 -101.001 -153.5s-129.667 -55.5 -219 -55.5
c-133.333 0 -237.666 40.667 -312.999 122s-113 195 -113 341c0 142 37.333 253.833 112 335.5s176 122.5 304 122.5c119.333 0 211.333 -41.667 276 -125s97 -202.666 97 -357.999v-6h-619v-10c0 -87.333 22.667 -155.666 68 -204.999s107.333 -74 186 -74
c38 0 68.667 5.5 92 16.5s39 27.5 47 49.5zM584 1294h221l-208 -280h-170z" />
    <glyph glyph-name="ecircumflex" unicode="&#xea;" 
d="M845 557c-7.33301 68 -30 120.499 -68 157.499s-88.333 55.5 -151 55.5c-60.667 0 -111.5 -18.667 -152.5 -56s-68.167 -89.666 -81.5 -156.999h453zM785 194.999l183 -0.00195312c-10.667 -65.333 -44.334 -116.5 -101.001 -153.5s-129.667 -55.5 -219 -55.5
c-133.333 0 -237.666 40.667 -312.999 122s-113 195 -113 341c0 142 37.333 253.833 112 335.5s176 122.5 304 122.5c119.333 0 211.333 -41.667 276 -125s97 -202.666 97 -357.999v-6h-619v-10c0 -87.333 22.667 -155.666 68 -204.999s107.333 -74 186 -74
c38 0 68.667 5.5 92 16.5s39 27.5 47 49.5zM482 1288h271l223 -274h-199l-162 172l-159 -172h-201z" />
    <glyph glyph-name="edieresis" unicode="&#xeb;" 
d="M845 557c-7.33301 68 -30 120.499 -68 157.499s-88.333 55.5 -151 55.5c-60.667 0 -111.5 -18.667 -152.5 -56s-68.167 -89.666 -81.5 -156.999h453zM785 194.999l183 -0.00195312c-10.667 -65.333 -44.334 -116.5 -101.001 -153.5s-129.667 -55.5 -219 -55.5
c-133.333 0 -237.666 40.667 -312.999 122s-113 195 -113 341c0 142 37.333 253.833 112 335.5s176 122.5 304 122.5c119.333 0 211.333 -41.667 276 -125s97 -202.666 97 -357.999v-6h-619v-10c0 -87.333 22.667 -155.666 68 -204.999s107.333 -74 186 -74
c38 0 68.667 5.5 92 16.5s39 27.5 47 49.5zM691 1288h172v-262h-172v262zM368 1288h172v-262h-172v262z" />
    <glyph glyph-name="igrave" unicode="&#xec;" 
d="M668 735h-275v146h437v-881h-162v735zM608 1292h226v-202h-226v202zM671 1014l-208 280h221l155 -280h-168z" />
    <glyph glyph-name="iacute" unicode="&#xed;" 
d="M667 735h-275v146h437v-881h-162v735zM607 1292h226v-202h-226v202zM619 1294h221l-208 -280h-170z" />
    <glyph glyph-name="icircumflex" unicode="&#xee;" 
d="M633 735h-275v146h437v-881h-162v735zM573 1292h226v-202h-226v202zM483 1288h271l223 -274h-199l-162 172l-159 -172h-201z" />
    <glyph glyph-name="idieresis" unicode="&#xef;" 
d="M638 735h-275v146h437v-881h-162v735zM578 1292h226v-202h-226v202zM697 1288h172v-262h-172v262zM374 1288h172v-262h-172v262z" />
    <glyph glyph-name="ntilde" unicode="&#xf1;" 
d="M224 893l152.001 0.00195312v-125c42.667 45.333 88.167 79.166 136.5 101.499s99.166 33.5 152.499 33.5c123.333 0 211.5 -34.833 264.5 -104.5s79.5 -192.5 79.5 -368.5v-430h-152v440c0 125.333 -14 211 -42 257s-76 69 -144 69c-53.333 0 -101 -11.333 -143 -34
s-76.333 -55.667 -103 -99c-18 -28.667 -30.667 -61.834 -38 -99.501s-11 -97.5 -11 -179.5v-26v-328h-152v893zM605.001 1092l-45.001 32.001c-10 7.33301 -21.167 13 -33.5 17s-24.5 6 -36.5 6c-19.333 0 -34.333 -7.83301 -45 -23.5s-16 -37.834 -16 -66.501h-162v4
c0 72 19.333 130.333 58 175s88.334 67 149.001 67c28.667 0 55.167 -4.16699 79.5 -12.5s49.833 -22.166 76.5 -41.499l45 -32c10 -8 20.833 -13.833 32.5 -17.5s23.834 -5.5 36.501 -5.5c20 0 35.333 7.66699 46 23s16.667 38.333 18 69h160v-4
c0 -72 -19.333 -130.667 -58 -176s-88.334 -68 -149.001 -68c-29.333 0 -56 4.16699 -80 12.5s-49.333 22.166 -76 41.499z" />
    <glyph glyph-name="ograve" unicode="&#xf2;" 
d="M616 127c80 0 143.833 28.833 191.5 86.5s71.5 135.167 71.5 232.5c0 98 -24 175.833 -72 233.5s-111.667 86.5 -191 86.5s-142.833 -28.833 -190.5 -86.5s-71.5 -135.5 -71.5 -233.5c0 -97.333 23.833 -174.833 71.5 -232.5s111.167 -86.5 190.5 -86.5zM1038 446
c0 -138.667 -38.667 -250 -116 -334s-179.333 -126 -306 -126c-126 0 -227.667 42 -305 126s-116 195.333 -116 334s38.833 250.5 116.5 335.5s179.167 127.5 304.5 127.5c126.667 0 228.667 -42.333 306 -127s116 -196.667 116 -336zM636 1014l-208 280h221l155 -280h-168z
" />
    <glyph glyph-name="oacute" unicode="&#xf3;" 
d="M616 127c80 0 143.833 28.833 191.5 86.5s71.5 135.167 71.5 232.5c0 98 -24 175.833 -72 233.5s-111.667 86.5 -191 86.5s-142.833 -28.833 -190.5 -86.5s-71.5 -135.5 -71.5 -233.5c0 -97.333 23.833 -174.833 71.5 -232.5s111.167 -86.5 190.5 -86.5zM1038 446
c0 -138.667 -38.667 -250 -116 -334s-179.333 -126 -306 -126c-126 0 -227.667 42 -305 126s-116 195.333 -116 334s38.833 250.5 116.5 335.5s179.167 127.5 304.5 127.5c126.667 0 228.667 -42.333 306 -127s116 -196.667 116 -336zM585 1294h221l-208 -280h-170z" />
    <glyph glyph-name="ocircumflex" unicode="&#xf4;" 
d="M616 127c80 0 143.833 28.833 191.5 86.5s71.5 135.167 71.5 232.5c0 98 -24 175.833 -72 233.5s-111.667 86.5 -191 86.5s-142.833 -28.833 -190.5 -86.5s-71.5 -135.5 -71.5 -233.5c0 -97.333 23.833 -174.833 71.5 -232.5s111.167 -86.5 190.5 -86.5zM1038 446
c0 -138.667 -38.667 -250 -116 -334s-179.333 -126 -306 -126c-126 0 -227.667 42 -305 126s-116 195.333 -116 334s38.833 250.5 116.5 335.5s179.167 127.5 304.5 127.5c126.667 0 228.667 -42.333 306 -127s116 -196.667 116 -336zM483 1288h271l223 -274h-199l-162 172
l-159 -172h-201z" />
    <glyph glyph-name="odieresis" unicode="&#xf6;" 
d="M616 127c80 0 143.833 28.833 191.5 86.5s71.5 135.167 71.5 232.5c0 98 -24 175.833 -72 233.5s-111.667 86.5 -191 86.5s-142.833 -28.833 -190.5 -86.5s-71.5 -135.5 -71.5 -233.5c0 -97.333 23.833 -174.833 71.5 -232.5s111.167 -86.5 190.5 -86.5zM1038 446
c0 -138.667 -38.667 -250 -116 -334s-179.333 -126 -306 -126c-126 0 -227.667 42 -305 126s-116 195.333 -116 334s38.833 250.5 116.5 335.5s179.167 127.5 304.5 127.5c126.667 0 228.667 -42.333 306 -127s116 -196.667 116 -336zM692 1288h172v-262h-172v262zM369 1288
h172v-262h-172v262z" />
    <glyph glyph-name="oslash" unicode="&#xf8;" 
d="M719 743c-18 8 -34.832 13.833 -50.499 17.5s-31.5 5.5 -47.5 5.5c-82.667 0 -147.834 -28.5 -195.501 -85.5s-71.5 -135.167 -71.5 -234.5c0 -50.667 6 -95 18 -133s30 -70.667 54 -98zM813.001 670l-289.001 -525c15.333 -6 29.833 -10.5 43.5 -13.5
s27.167 -4.5 40.5 -4.5c84 0 150.167 28.333 198.5 85s72.5 134.667 72.5 234c0 50.667 -5.66699 95 -17 133s-27.666 68.333 -48.999 91zM453 14l-95 -172.001h-139l129 234c-52 44 -90.5 96.333 -115.5 157s-37.5 131.667 -37.5 213c0 138.667 39 250.5 117 335.5
s180 127.5 306 127.5c28 0 55.833 -2.66699 83.5 -8s56.5 -14.333 86.5 -27l84 154h142l-121 -219c49.333 -46 85.833 -98.667 109.5 -158s35.5 -127.666 35.5 -204.999c0 -137.333 -38.5 -248.333 -115.5 -333s-177.5 -127 -301.5 -127c-28.667 0 -57 2.33301 -85 7
s-55.667 11.667 -83 21z" />
    <glyph glyph-name="ugrave" unicode="&#xf9;" 
d="M1009 0l-152.001 0.00292969v125c-44 -46.667 -90.333 -80.834 -139 -102.501s-102.667 -32.5 -162 -32.5c-60 0 -113.333 11.667 -160 35s-84 56.666 -112 99.999c-21.333 33.333 -36.666 71.666 -45.999 114.999s-14 117.666 -14 222.999v430h152v-438
c0 -127.333 14.667 -213.833 44 -259.5s79.333 -68.5 150 -68.5c49.333 0 95 11.667 137 35s75.667 56 101 98c17.333 28.667 29.833 61.834 37.5 99.501s11.5 97.5 11.5 179.5v26v328h152v-893zM634.999 1014l-208 280h221l155 -280h-168z" />
    <glyph glyph-name="uacute" unicode="&#xfa;" 
d="M1009 0l-152.001 0.00292969v125c-44 -46.667 -90.333 -80.834 -139 -102.501s-102.667 -32.5 -162 -32.5c-60 0 -113.333 11.667 -160 35s-84 56.666 -112 99.999c-21.333 33.333 -36.666 71.666 -45.999 114.999s-14 117.666 -14 222.999v430h152v-438
c0 -127.333 14.667 -213.833 44 -259.5s79.333 -68.5 150 -68.5c49.333 0 95 11.667 137 35s75.667 56 101 98c17.333 28.667 29.833 61.834 37.5 99.501s11.5 97.5 11.5 179.5v26v328h152v-893zM583.999 1294h221l-208 -280h-170z" />
    <glyph glyph-name="ucircumflex" unicode="&#xfb;" 
d="M1009 0l-152.001 0.00292969v125c-44 -46.667 -90.333 -80.834 -139 -102.501s-102.667 -32.5 -162 -32.5c-60 0 -113.333 11.667 -160 35s-84 56.666 -112 99.999c-21.333 33.333 -36.666 71.666 -45.999 114.999s-14 117.666 -14 222.999v430h152v-438
c0 -127.333 14.667 -213.833 44 -259.5s79.333 -68.5 150 -68.5c49.333 0 95 11.667 137 35s75.667 56 101 98c17.333 28.667 29.833 61.834 37.5 99.501s11.5 97.5 11.5 179.5v26v328h152v-893zM481.999 1288h271l223 -274h-199l-162 172l-159 -172h-201z" />
    <glyph glyph-name="udieresis" unicode="&#xfc;" 
d="M1009 0l-152.001 0.00292969v125c-44 -46.667 -90.333 -80.834 -139 -102.501s-102.667 -32.5 -162 -32.5c-60 0 -113.333 11.667 -160 35s-84 56.666 -112 99.999c-21.333 33.333 -36.666 71.666 -45.999 114.999s-14 117.666 -14 222.999v430h152v-438
c0 -127.333 14.667 -213.833 44 -259.5s79.333 -68.5 150 -68.5c49.333 0 95 11.667 137 35s75.667 56 101 98c17.333 28.667 29.833 61.834 37.5 99.501s11.5 97.5 11.5 179.5v26v328h152v-893zM690.999 1288h172v-262h-172v262zM367.999 1288h172v-262h-172v262z" />
    <glyph glyph-name="ydieresis" unicode="&#xff;" 
d="M153 893l180 -0.000976562l299 -524l281 524h167l-557 -1026c-36.667 -67.333 -69.167 -111.166 -97.5 -131.499s-68.833 -30.5 -121.5 -30.5h-82v148h76c14.667 0 27.5 3 38.5 9s20.167 15 27.5 27l184 334zM685 1288h172v-262h-172v262zM362 1288h172v-262h-172v262z
" />
    <glyph glyph-name="circumflex" unicode="&#x2c6;" 
d="M483 1288h271l223 -274h-199l-162 172l-159 -172h-201z" />
    <glyph glyph-name="tilde" unicode="&#x2dc;" 
d="M604 1092l-45.001 32.001c-10 7.33301 -21.167 13 -33.5 17s-24.5 6 -36.5 6c-19.333 0 -34.333 -7.83301 -45 -23.5s-16 -37.834 -16 -66.501h-162v4c0 72 19.333 130.333 58 175s88.334 67 149.001 67c28.667 0 55.167 -4.16699 79.5 -12.5
s49.833 -22.166 76.5 -41.499l45 -32c10 -8 20.833 -13.833 32.5 -17.5s23.834 -5.5 36.501 -5.5c20 0 35.333 7.66699 46 23s16.667 38.333 18 69h160v-4c0 -72 -19.333 -130.667 -58 -176s-88.334 -68 -149.001 -68c-29.333 0 -56 4.16699 -80 12.5
s-49.333 22.166 -76 41.499z" />
    <glyph glyph-name="uni0401" unicode="&#x401;" 
d="M254 1014h706v-148h-536v-252h471v-153h-471v-293h555v-158h-725v1004zM407 1192h160v-145h-160v145zM696 1192h160v-145h-160v145z" />
    <glyph glyph-name="uni0410" unicode="&#x410;" 
d="M473 504h271l-136 543zM735 1202l316 -1202h-185l-84 346h-348l-86 -346h-166l314 1202h239z" />
    <glyph glyph-name="uni0411" unicode="&#x411;" 
d="M360 166h204.999c96 0 169.167 15.333 219.5 46s75.5 80.667 75.5 150c0 65.333 -24.167 113.5 -72.5 144.5s-123.166 46.5 -224.499 46.5h-203v-387zM359.999 717h240.003c19.333 0 39.833 -0.333008 61.5 -1s44 -2.5 67 -5.5s46.167 -7.83301 69.5 -14.5
s46.666 -16 69.999 -28c56 -32 99.333 -72.333 130 -121s46.667 -111 48 -187c1.33301 -74 -15.334 -137 -50.001 -189s-82.334 -92 -143.001 -120c-43.333 -19.333 -87.333 -31 -132 -35s-92 -6 -142 -6h-393v1170h786v-154h-612v-309z" />
    <glyph glyph-name="uni0412" unicode="&#x412;" 
d="M361 698h205c97.333 0 167 12.333 209 37s63 65.667 63 123c0 60.667 -21 103.667 -63 129c-43.333 27.333 -111 41 -203 41h-211v-330zM361 166l205.001 0.00195312c51.333 0 95.666 3.66699 132.999 11s67.333 18.666 90 33.999c46.667 30.667 70 79 70 145
c0 63.333 -22.667 110.666 -68 141.999c-46 31.333 -115.667 47 -209 47h-221v-379zM611.001 1184c128.667 0 228.333 -28 299 -84c69.333 -56 104 -134.667 104 -236c0 -60 -12.333 -110.333 -37 -151s-62 -70.667 -112 -90c58 -21.333 102.333 -54.333 133 -99
c15.333 -23.333 26.666 -49 33.999 -77s11 -59 11 -93s-4.16699 -66.167 -12.5 -96.5s-21.166 -58.833 -38.499 -85.5c-33.333 -54 -80 -94.333 -140 -121c-32 -14 -66.667 -24.333 -104 -31c-19.333 -4 -42.833 -6.66699 -70.5 -8s-60.167 -2 -97.5 -2h-57h-334v1174h422z
" />
    <glyph glyph-name="uni0413" unicode="&#x413;" 
d="M229 1184h774v-158h-604v-1026h-170v1184z" />
    <glyph glyph-name="uni0414" unicode="&#x414;" 
d="M800 299v735h-238c-4 -75.333 -9.16699 -149.833 -15.5 -223.5s-15 -143 -26 -208s-25 -123.667 -42 -176s-38.167 -94.833 -63.5 -127.5h385zM173 299c34 10.667 62.833 29.668 86.5 57.001s43.5 61.666 59.5 102.999s28.5 88.5 37.5 141.5s16.167 110.667 21.5 173
s9.33301 128 12 197l8 213.5h572v-885h90l-2 -299h-140l-16 150h-569l-17 -150h-143v299z" />
    <glyph glyph-name="uni0415" unicode="&#x415;" 
d="M962 1184v-148h-539v-331h474v-156h-474v-381h557v-158h-727v1174h709z" />
    <glyph glyph-name="uni0416" unicode="&#x416;" 
d="M701 1192l-0.00878906 -479c18 0 34.333 6.83301 49 20.5s27.834 31.667 39.501 54s21.834 47.833 30.501 76.5s16 58 22 88c14.667 70.667 25 150.667 31 240h170c-9.33301 -92 -22.333 -176.333 -39 -253c-7.33301 -32.667 -15.5 -65.334 -24.5 -98.001
s-19 -63 -30 -91s-23.167 -52.5 -36.5 -73.5s-28 -36.167 -44 -45.5c18 -9.33301 34.667 -25.5 50 -48.5s29.666 -50.167 42.999 -81.5s25.333 -65.5 36 -102.5s20.334 -73.833 29.001 -110.5c20 -87.333 37 -183.333 51 -288h-177c-10 101.333 -23.667 192 -41 272
c-7.33301 34 -16.166 67.333 -26.499 100s-22 61.667 -35 87s-27.667 46 -44 62s-34.166 24 -53.499 24v-545h-170v545c-19.333 0 -37.166 -8 -53.499 -24s-31 -36.667 -44 -62s-24.5 -54.333 -34.5 -87s-19 -66 -27 -100c-18 -80 -32 -170.667 -42 -272h-176
c13.333 104.667 30 200.667 50 288c8.66699 36.667 18.334 73.5 29.001 110.5s22.667 71.167 36 102.5s27.833 58.5 43.5 81.5s32.5 39.167 50.5 48.5c-16 9.33301 -30.667 24.5 -44 45.5s-25.5 45.5 -36.5 73.5s-21 58.333 -30 91s-16.833 65.334 -23.5 98.001
c-16.667 76.667 -30 161 -40 253h170c5.33301 -89.333 15.333 -169.333 30 -240c6 -30 13.333 -59.333 22 -88s18.834 -54.167 30.501 -76.5s24.834 -40.333 39.501 -54s31.334 -20.5 50.001 -20.5v479h170z" />
    <glyph glyph-name="uni0417" unicode="&#x417;" 
d="M234 217c26.667 -13.333 54.1689 -24.4971 82.502 -33.4971s56.666 -16.333 84.999 -22s55.666 -9.83398 81.999 -12.501s50.833 -4 73.5 -4c36.667 0 70.667 4.5 102 13.5s58.5 22.5 81.5 40.5s40.833 40.333 53.5 67s19 58 19 94c0 68.667 -17.5 119.334 -52.5 152.001
s-91.167 49 -168.5 49h-137v150h135c38.667 0 71 4.66699 97 14s47 22.166 63 38.499s27.5 35.666 34.5 57.999s10.5 46.166 10.5 71.499c0 31.333 -5.66699 57.833 -17 79.5s-27.166 39.334 -47.499 53.001s-44.333 23.667 -72 30s-57.834 9.5 -90.501 9.5
c-24 0 -49.333 -1.5 -76 -4.5s-53.667 -7.5 -81 -13.5s-54.833 -13.5 -82.5 -22.5s-53.834 -19.5 -78.501 -31.5l8 170c26 8 54.167 15.167 84.5 21.5s60.666 11.666 90.999 15.999s59.5 7.66602 87.5 9.99902s53 3.5 75 3.5c59.333 0 112.333 -6.83301 159 -20.5
s86.167 -33.667 118.5 -60s57 -59 74 -98s25.5 -83.833 25.5 -134.5c0 -43.333 -6.83301 -80.833 -20.5 -112.5s-28.5 -58 -44.5 -79s-30.667 -36.833 -44 -47.5s-19.333 -16.334 -18 -17.001c21.333 -10 41.333 -23 60 -39s34.834 -35.333 48.501 -58
s24.334 -48.667 32.001 -78s11.5 -63 11.5 -101c0 -61.333 -10.167 -115.833 -30.5 -163.5s-49.166 -88.167 -86.499 -121.5s-82.333 -58.666 -135 -75.999s-111.334 -26 -176.001 -26c-20.667 0 -44.167 1 -70.5 3s-54 5.33301 -83 10s-58.333 10.334 -88 17.001
s-58.5 15 -86.5 25l-8 180v0z" />
    <glyph glyph-name="uni0418" unicode="&#x418;" 
d="M1012 2h-170l-2 895l-422 -895h-197v1190h170v-889l416 889h205v-1190z" />
    <glyph glyph-name="uni0419" unicode="&#x419;" 
d="M1011 10h-168l-4 758l-419 -758h-197l-2 1020h170l2 -766l414 766h202zM506 1192c4 -6 8.33203 -12 12.999 -18s9.66699 -11 15 -15c18.667 -12 44 -18 76 -18c16.667 0 31.167 1.83301 43.5 5.5s23.833 9.16699 34.5 16.5c5.33301 3.33301 10 7.5 14 12.5
s8 10.5 12 16.5h140c-7.33301 -26.667 -17 -49.667 -29 -69s-27.667 -36.666 -47 -51.999c-21.333 -17.333 -46.666 -28.5 -75.999 -33.5s-60 -7.5 -92 -7.5s-63 3.16699 -93 9.5s-56.333 18.166 -79 35.499c-19.333 15.333 -34.333 32.333 -45 51s-19.667 40.667 -27 66
h140z" />
    <glyph glyph-name="uni041A" unicode="&#x41a;" 
d="M325 1194v-496l483 496h229l-571 -565l612 -629h-239l-514 549v-549h-170v1194h170z" />
    <glyph glyph-name="uni041B" unicode="&#x41b;" 
d="M1007 0l-170.004 -0.00390625v1034h-238l-5.5 -174.5l-4.5 -134.5c-1.33301 -39.333 -2.83301 -74.166 -4.5 -104.499s-3.5 -58.666 -5.5 -84.999s-4.16699 -51.666 -6.5 -75.999s-5.16602 -49.833 -8.49902 -76.5c-13.333 -126 -49.666 -223.333 -108.999 -292
s-135.666 -103.667 -228.999 -105v151c23.333 0 44.166 5.16699 62.499 15.5s34.333 24.666 48 42.999s25.334 39.833 35.001 64.5s17.167 51.334 22.5 80.001c4.66699 24.667 9 59.834 13 105.501s7.83301 103 11.5 172s6.83398 150.333 9.50098 244s5 201.167 7 322.5h572
v-1184z" />
    <glyph glyph-name="uni041C" unicode="&#x41c;" 
d="M471 1194l145 -526l146 526h276v-1194h-170v1024l-186 -635h-139l-187 639v-1028h-161v1194h276z" />
    <glyph glyph-name="uni041D" unicode="&#x41d;" 
d="M411 1194v-500h411v500h170v-1194h-170v539h-411v-539h-170v1194h170z" />
    <glyph glyph-name="uni041E" unicode="&#x41e;" 
d="M616 141c36 0 68.833 10.334 98.5 31.001s55.167 52 76.5 94c44.667 81.333 67 193.333 67 336c0 141.333 -21.667 253.333 -65 336c-43.333 82 -102.333 123 -177 123s-133.334 -41 -176.001 -123c-43.333 -82.667 -65 -194.667 -65 -336
c0 -140.667 21.667 -253.334 65 -338.001c44.667 -82 103.334 -123 176.001 -123zM1042 598.001c0 -180.667 -40 -328.667 -120 -444c-80 -114.667 -182 -172 -306 -172c-123.333 0 -225 57.333 -305 172c-41.333 57.333 -71.833 122.833 -91.5 196.5
s-29.5 156.167 -29.5 247.5s9.83301 173.833 29.5 247.5s50.167 139.167 91.5 196.5c80 114.667 181.667 172 305 172c124 0 226 -57.333 306 -172c80 -115.333 120 -263.333 120 -444z" />
    <glyph glyph-name="uni041F" unicode="&#x41f;" 
d="M239 1184h754v-1184h-170v1026h-412v-1026h-172v1184z" />
    <glyph glyph-name="uni0420" unicode="&#x420;" 
d="M384 651l192 -0.000976562c90.667 0 157 14.333 199 43c19.333 15.333 34 35 44 59s15 53 15 87c0 64.667 -20.333 112.334 -61 143.001c-38.667 32.667 -98.667 49 -180 49h-209v-381zM623 1184c124 0 221 -30 291 -90c70 -62 105 -146 105 -252
c0 -107.333 -33.667 -191.333 -101 -252c-66 -61.333 -157.333 -92 -274 -92h-260v-498h-170v1184h409z" />
    <glyph glyph-name="uni0421" unicode="&#x421;" 
d="M793 918c-4 42.667 -17.667 75.332 -41 97.999c-25.333 22 -58.666 33 -99.999 33c-66.667 0 -118.667 -38.333 -156 -115c-35.333 -76.667 -53 -187.334 -53 -332.001c0 -151.333 17.667 -267.333 53 -348c34.667 -79.333 86.667 -119 156 -119
c42 0 76.667 11.667 104 35c13.333 12.667 23.166 27 29.499 43s10.166 34.333 11.499 55h178c-12 -88.667 -45.333 -159 -100 -211c-28 -25.333 -59.333 -44.5 -94 -57.5s-73.667 -19.5 -117 -19.5c-129.333 0 -229.666 54.333 -300.999 163
c-70 108.667 -105 264.334 -105 467.001c0 182.667 36.333 327.334 109 434.001c72 105.333 169.667 158 293 158c44 0 83.833 -6.16699 119.5 -18.5s67.5 -31.5 95.5 -57.5c54 -50 86 -119.333 96 -208h-178z" />
    <glyph glyph-name="uni0422" unicode="&#x422;" 
d="M216 1028v156h801v-156h-316v-1028h-170v1028h-315z" />
    <glyph glyph-name="uni0423" unicode="&#x423;" 
d="M184 1194h205.002l260 -600l213 600h187l-355 -971c-14 -38 -29.833 -71.667 -47.5 -101s-39.834 -53.666 -66.501 -72.999s-58.834 -34 -96.501 -44s-83.5 -15 -137.5 -15h-39l2 145c34.667 0.666992 64.167 3 88.5 7s45 10.833 62 20.5s31 22.167 42 37.5
s20.5 34.666 28.5 57.999l39 109z" />
    <glyph glyph-name="uni0424" unicode="&#x424;" 
d="M534 967c-30.667 -1.33301 -58.3301 -7.83398 -82.9971 -19.501s-45.834 -31.167 -63.501 -58.5s-31.334 -64.333 -41.001 -111s-14.5 -106 -14.5 -178c0 -74 4.66699 -134.667 14 -182s22.666 -84.666 39.999 -111.999s38.5 -46.5 63.5 -57.5s53.167 -17.5 84.5 -19.5
v738zM706.004 230.999c30 2 57.167 8.66699 81.5 20s44.833 30.833 61.5 58.5s29.5 65 38.5 112s13.5 106.5 13.5 178.5c0 70 -4.66699 128.167 -14 174.5s-22.5 83.333 -39.5 111s-37.5 47.667 -61.5 60s-50.667 19.5 -80 21.5v-736zM706.004 1194v-81.998
c55.333 -2.66699 105.833 -13.5 151.5 -32.5s84.667 -48.333 117 -88s57.5 -91 75.5 -154s27 -139.5 27 -229.5c0 -98.667 -8.5 -181 -25.5 -247s-41.333 -119.167 -73 -159.5s-70.5 -69.333 -116.5 -87s-98 -27.834 -156 -30.501v-84h-172v82
c-59.333 2 -112.333 11.833 -159 29.5s-86.334 46.667 -119.001 87s-57.5 93.666 -74.5 159.999s-25.5 149.5 -25.5 249.5c0 92 9 169.5 27 232.5s43.5 114.333 76.5 154s72.833 68.667 119.5 87s98.334 28.5 155.001 30.5v82h172z" />
    <glyph glyph-name="uni0425" unicode="&#x425;" 
d="M178 1194h205l231 -424l236 424h188l-319 -576l338 -618h-203l-242 457l-241 -457h-195l334 608z" />
    <glyph glyph-name="uni0426" unicode="&#x426;" 
d="M195 1196h169v-897h414v897h170v-897h90l-16 -299h-139l-2 150h-686v1046z" />
    <glyph glyph-name="uni0427" unicode="&#x427;" 
d="M410 797c0 -32 4.16797 -59.666 12.501 -82.999s19.666 -42.5 33.999 -57.5s31.166 -26.167 50.499 -33.5s40.333 -11 63 -11c41.333 0 77.5 1.83301 108.5 5.5s57.167 8.16699 78.5 13.5c24.667 6 46.334 12.667 65.001 20v543h170v-1192h-172v483
c-24.667 -6.66699 -51 -12.667 -79 -18c-24 -4.66699 -51.667 -8.83398 -83 -12.501s-64 -5.5 -98 -5.5c-45.333 0 -87.5 7.33301 -126.5 22s-72.833 36 -101.5 64s-51.167 62 -67.5 102s-24.5 85 -24.5 135v422h170v-397v0z" />
    <glyph glyph-name="uni0428" unicode="&#x428;" 
d="M194 1192h172v-1042h170v1042h170v-1042h162v1042h170v-1192h-844v1192z" />
    <glyph glyph-name="uni0429" unicode="&#x429;" 
d="M151 1194h170v-897h170v897h170v-897h160v897h170v-897h90l-17 -297h-139l-2 147h-772v1047z" />
    <glyph glyph-name="uni042A" unicode="&#x42a;" 
d="M597 164c54.667 -4 103.667 0.333984 147 13.001c18.667 5.33301 36.834 12.666 54.501 21.999s33.5 21.833 47.5 37.5s25.167 34.5 33.5 56.5s12.5 48 12.5 78c0 27.333 -4.16699 51.166 -12.5 71.499s-19.5 37.833 -33.5 52.5s-29.833 26.834 -47.5 36.501
s-35.834 17.5 -54.501 23.5c-43.333 14 -92.333 20.667 -147 20v-411zM156 1038l-0.00292969 143.998l271 2l161 -2h9v-453c88.667 2.66699 168.334 -8 239.001 -32c30 -10 59.333 -23.5 88 -40.5s54.334 -38.667 77.001 -65s40.834 -57.666 54.501 -93.999
s20.5 -79.166 20.5 -128.499c0 -50 -7 -93.5 -21 -130.5s-32.167 -68.5 -54.5 -94.5s-48 -47.333 -77 -64s-58.5 -30 -88.5 -40c-70.667 -22.667 -150.667 -32 -240 -28h-168v1026h-271z" />
    <glyph glyph-name="uni042B" unicode="&#x42b;" 
d="M342 162c55.333 -4 104.666 0.333008 147.999 13c18.667 5.33301 36.834 12.666 54.501 21.999s33.5 21.833 47.5 37.5s25.333 34.5 34 56.5s13 48 13 78c0 27.333 -4.33301 51.333 -13 72s-20 38.334 -34 53.001s-29.833 26.834 -47.5 36.501s-35.834 17.5 -54.501 23.5
c-43.333 13.333 -92.666 19.666 -147.999 18.999v-411zM172 1192l170 -0.000976562v-465c89.333 2.66699 169.333 -7.66602 240 -30.999c30 -10 59.5 -23.5 88.5 -40.5s54.667 -38.667 77 -65s40.5 -57.833 54.5 -94.5s21 -79.667 21 -129c0 -50.667 -7 -94.5 -21 -131.5
s-32.333 -68.5 -55 -94.5s-48.5 -47.333 -77.5 -64s-58.5 -30 -88.5 -40c-70.667 -22.667 -151 -31.667 -241 -27h-168v1182zM890 1192h170v-1190h-170v1190z" />
    <glyph glyph-name="uni042C" unicode="&#x42c;" 
d="M214 1192l170.001 0.000976562v-463h260c57.333 0 109.166 -8.83301 155.499 -26.5s85.666 -42.334 117.999 -74.001s57.333 -69.5 75 -113.5s26.5 -92.667 26.5 -146c0 -52 -8.66699 -100 -26 -144s-42.833 -82 -76.5 -114s-75.167 -56.833 -124.5 -74.5
s-105.666 -26.5 -168.999 -26.5h-409v1182zM593.001 162.001c81.333 0 141.832 18.5 181.499 55.5s59.5 87.5 59.5 151.5c0 70.667 -21.167 122.667 -63.5 156s-107.166 50 -194.499 50h-192v-413h209z" />
    <glyph glyph-name="uni042D" unicode="&#x42d;" 
d="M259 930c4.66699 44.667 15.3281 84.666 31.9951 119.999s38.5 65.333 65.5 90s58.667 43.667 95 57s76.5 20 120.5 20c60.667 0 115.834 -13.333 165.501 -40s92.334 -65.5 128.001 -116.5s63.334 -113.667 83.001 -188s29.5 -159.166 29.5 -254.499
c0 -104 -9.33301 -195.5 -28 -274.5s-45.667 -145.167 -81 -198.5s-78.333 -93.5 -129 -120.5s-108 -40.5 -172 -40.5c-43.333 0 -82.833 6.5 -118.5 19.5s-67 32 -94 57s-49 55.5 -66 91.5s-28.5 76.667 -34.5 122h180c0.666992 -20 4.5 -38.167 11.5 -54.5
s16.833 -30.5 29.5 -42.5s27.834 -21.333 45.501 -28s37.5 -10 59.5 -10c64 0 113.667 34.667 149 104s55.333 172 60 308h-336v156h336c-8.66699 118 -31 206.5 -67 265.5s-83.333 88.5 -142 88.5c-87.333 0 -134.666 -43.667 -141.999 -131h-180v0z" />
    <glyph glyph-name="uni042E" unicode="&#x42e;" 
d="M731 139c22.667 0.666992 43.832 11.667 63.499 33s36.834 52.333 51.501 93s26.167 90.5 34.5 149.5s12.5 126.167 12.5 201.5c0 294 -53.333 441 -160 441c-48 0 -87.167 -37.167 -117.5 -111.5s-45.5 -182.5 -45.5 -324.5c0 -156.667 14.5 -276.167 43.5 -358.5
s68.167 -123.5 117.5 -123.5zM323.998 1192l0.000976562 -500.002h74c4.66699 80.667 15.167 153.167 31.5 217.5s38.333 119 66 164s61.167 79.333 100.5 103s84.333 35.5 135 35.5c56.667 0 106.667 -14.167 150 -42.5s79.666 -69.166 108.999 -122.499
s51.333 -118 66 -194s22 -161.667 22 -257s-7.33301 -181 -22 -257s-36.5 -140.667 -65.5 -194s-65.167 -94.166 -108.5 -122.499s-93.666 -42.5 -150.999 -42.5c-107.333 0 -187.833 47.167 -241.5 141.5s-84.834 232.833 -93.501 415.5h-72v-537h-170v1192h170z" />
    <glyph glyph-name="uni042F" unicode="&#x42f;" 
d="M1014 0h-169.999v498h-145l-277 -498h-204l307 526c-80.667 17.333 -141.834 52.833 -183.501 106.5s-62.5 124.167 -62.5 211.5c0 116 34.5 201.667 103.5 257s173.167 83 312.5 83h319v-1184zM717.001 1032c-87.333 0 -151.5 -15 -192.5 -45s-61.5 -80.333 -61.5 -151
c0 -122 83.333 -183 250 -183h131v379h-127z" />
    <glyph glyph-name="uni0430" unicode="&#x430;" 
d="M841 418c-6 0 -12.999 0.331055 -20.999 0.998047s-16.667 1 -26 1c-13.333 1.33301 -24.5 2 -33.5 2h-19.5c-56.667 0 -105.834 -3.16699 -147.501 -9.5s-76.5 -16.166 -104.5 -29.499c-56 -27.333 -84 -67.666 -84 -120.999c0 -38 14.333 -69.333 43 -94
c30.667 -24.667 69 -37 115 -37c78 0 142.667 26.667 194 80c52 52 80 121 84 207zM841.001 114.998c-18.667 -21.333 -38.6699 -39.8291 -60.0029 -55.4961s-43.666 -28.834 -66.999 -39.501c-45.333 -21.333 -97 -32 -155 -32c-95.333 0 -172 26 -230 78
c-57.333 51.333 -86 118.666 -86 201.999c0 52 10.667 96.333 32 133s53 67 95 91c84.667 47.333 217 71 397 71h16c6 0 13 -0.666992 21 -2h37v6c0 69.333 -17.667 120.666 -53 153.999c-35.333 31.333 -92.666 47 -171.999 47c-41.333 0 -74.666 -5.33301 -99.999 -16
c-12.667 -6.66699 -22.667 -14.167 -30 -22.5s-13.333 -18.833 -18 -31.5h-167c8 69.333 39.333 122 94 158c53.333 35.333 128.333 53 225 53c129.333 0 223 -28 281 -84c58.667 -54.667 88 -143.334 88 -266.001v-559h-148v115z" />
    <glyph glyph-name="uni0431" unicode="&#x431;" 
d="M365 442c6.66699 -97.333 31.832 -172.834 75.499 -226.501s104.5 -80.5 182.5 -80.5c75.333 0 135 26.333 179 79s67 128.667 69 228h160c-0.666992 -71.333 -10.334 -135.166 -29.001 -191.499s-45.5 -104 -80.5 -143s-77.167 -68.667 -126.5 -89
s-104.666 -30.5 -165.999 -30.5c-54.667 0 -106.167 8.33301 -154.5 25s-91.166 43.334 -128.499 80.001s-68 83.667 -92 141s-39.333 126.666 -46 207.999h157zM207.998 441.999c0 6.66699 -0.334961 13.0029 -1.00195 19.0029s-1 12.667 -1 20
c-3.33301 52.667 -4.33301 105.667 -3 159c0.666992 22.667 1.66699 46.667 3 72s3.5 50.833 6.5 76.5s6.83301 51.167 11.5 76.5s10.667 49.666 18 72.999c16.667 56.667 37.834 104.5 63.501 143.5s53.834 71.333 84.501 97s63.334 45.5 98.001 59.5s69.667 24.5 105 31.5
s70.333 11 105 12s67.334 1.5 98.001 1.5s58.667 0.166992 84 0.5s46.333 3.16602 63 8.49902c0.666992 0 1 -7.83301 1 -23.5v-51.5c0 -22 -0.333008 -46.667 -1 -74c-24.667 -6 -53.167 -9 -85.5 -9s-66.333 0.166992 -102 0.5s-71.667 -1.16699 -108 -4.5
s-71 -11.666 -104 -24.999s-63 -33.333 -90 -60s-48.833 -63 -65.5 -109c-4 -11.333 -8.16699 -24.333 -12.5 -39s-8.33301 -29.834 -12 -45.501s-7 -31.167 -10 -46.5s-5.16699 -29 -6.5 -41c14.667 19.333 31.667 37.833 51 55.5s41.333 33 66 46s52.167 23.333 82.5 31
s64.166 11.167 101.499 10.5c58 -0.666992 110.5 -11.334 157.5 -32.001s87.167 -50.5 120.5 -89.5s59.166 -86.667 77.499 -143s27.5 -120.166 27.5 -191.499v-9h-160v11c0 48 -5.83301 91.167 -17.5 129.5s-28.334 70.666 -50.001 96.999s-47.834 46.666 -78.501 60.999
s-64.667 21.5 -102 21.5c-38.667 0 -74.5 -7 -107.5 -21s-61.167 -34.167 -84.5 -60.5s-41.166 -59 -53.499 -98s-17.166 -83.5 -14.499 -133.5c0 -3.33301 0.666992 -5.66602 2 -6.99902h-157z" />
    <glyph glyph-name="uni0432" unicode="&#x432;" 
d="M659 526c5.33301 0 15.333 1 30 3s29.834 7.16699 45.501 15.5s29.5 20.5 41.5 36.5s18 38 18 66c0 22 -6.33301 39.167 -19 51.5s-27.334 21.5 -44.001 27.5s-33.167 9.66699 -49.5 11s-27.833 2 -34.5 2h-258l2 -213h268zM239 10l-0.00195312 875h408
c30 0 62.833 -2.83301 98.5 -8.5s68.667 -16.334 99 -32.001s55.833 -37.834 76.5 -66.501s31 -66 31 -112c0 -34.667 -5.5 -64 -16.5 -88s-23.167 -43.833 -36.5 -59.5s-25.5 -27 -36.5 -34s-16.167 -10.833 -15.5 -11.5c18.667 -8 36.834 -17.5 54.501 -28.5
s33.334 -24.833 47.001 -41.5s24.5 -36.5 32.5 -59.5s12 -50.167 12 -81.5c0 -33.333 -4.5 -62.666 -13.5 -87.999s-21 -47 -36 -65s-32 -33 -51 -45s-38.5 -21.667 -58.5 -29c-46.667 -17.333 -99.667 -25.666 -159 -24.999h-436zM674.998 158
c30 0 56.667 3.66504 80 10.998c20 6.66699 38.333 17.334 55 32.001s25 36.334 25 65.001c0 27.333 -5.5 48.833 -16.5 64.5s-24 27.5 -39 35.5s-30.333 13.167 -46 15.5l-37.5 5.5h-305v-229h284z" />
    <glyph glyph-name="uni0433" unicode="&#x433;" 
d="M290 883h652v-146h-500v-727h-152v873z" />
    <glyph glyph-name="uni0434" unicode="&#x434;" 
d="M797 737l-235 -0.000976562c-4.66699 -57.333 -9.66699 -115.166 -15 -173.499s-12.833 -113.5 -22.5 -165.5s-21.667 -99 -36 -141s-32.833 -75 -55.5 -99h364v579zM177 149.999c50.667 14 90.832 42.5 120.499 85.5s52.5 97 68.5 162s27.333 138.833 34 221.5
s12.334 170 17.001 262h542v-723h97v-301h-127l-29 153h-563l-29 -153h-131v293z" />
    <glyph glyph-name="uni0435" unicode="&#x435;" 
d="M845 557c-3.33301 34 -10.8291 64.167 -22.4961 90.5s-26.834 48.833 -45.501 67.5c-38.667 36.667 -89 55 -151 55c-60.667 0 -111.334 -18.333 -152.001 -55c-20.667 -19.333 -37.834 -42 -51.501 -68s-23.834 -56 -30.501 -90h453zM968.004 195
c-10.667 -65.333 -44.333 -116.668 -101 -154.001c-56.667 -36.667 -129.667 -55 -219 -55c-132.667 0 -237 41 -313 123c-38 40 -66.333 88.333 -85 145s-28 121.667 -28 195c0 142 37.667 253.667 113 335c74 82 175 123 303 123c119.333 0 211.333 -41.667 276 -125
c32 -42 56.167 -92.5 72.5 -151.5s24.5 -127.833 24.5 -206.5v-6h-619v-10c0 -87.333 22.667 -155.666 68 -204.999s107.333 -74 186 -74c36 0 66.667 5.33301 92 16c24 11.333 39.667 28 47 50h183z" />
    <glyph glyph-name="uni0436" unicode="&#x436;" 
d="M691 428v-424h-149v424h-13l-198 -424h-176l239 492l-217 399h172l180 -346h13v346h149v-346h12l181 346h172l-217 -399l239 -492h-176l-199 424h-12z" />
    <glyph glyph-name="uni0437" unicode="&#x437;" 
d="M276 182c24 -10 48.8301 -18.501 74.4971 -25.501s50.834 -12.667 75.501 -17s48.667 -7.5 72 -9.5s45 -3 65 -3c28.667 0 56.667 2.66699 84 8s51.833 13.5 73.5 24.5s39 25.167 52 42.5s19.5 38 19.5 62c0 29.333 -4.66699 52.5 -14 69.5s-23.166 30 -41.499 39
s-41.5 14.667 -69.5 17s-60.667 3.5 -98 3.5h-96v137l96 -2c40 -0.666992 73.333 1.33301 100 6s47.834 12.167 63.501 22.5s26.834 24.166 33.501 41.499s10 38.666 10 63.999c0 20.667 -6 38.167 -18 52.5s-27.5 25.833 -46.5 34.5s-40.667 15 -65 19s-48.833 6 -73.5 6
c-42 0 -88.167 -4.16699 -138.5 -12.5s-97.5 -21.166 -141.5 -38.499l6 145c22.667 6.66699 47.334 12.834 74.001 18.501s53.5 10.5 80.5 14.5s53.167 7 78.5 9s48 3 68 3c52 0 98.667 -6 140 -18s76.333 -28.5 105 -49.5s50.667 -45.833 66 -74.5s23 -59.667 23 -93
c0 -55.333 -8.16699 -98.5 -24.5 -129.5s-42.5 -54.833 -78.5 -71.5c36 -15.333 65.833 -40.166 89.5 -74.499s35.5 -79.833 35.5 -136.5c0 -45.333 -9 -85.333 -27 -120s-43.667 -63.667 -77 -87s-73.5 -41 -120.5 -53s-99.167 -18 -156.5 -18
c-18 0 -38.5 1.16699 -61.5 3.5s-47.333 5.5 -73 9.5s-51.834 8.83301 -78.501 14.5s-52.334 12.167 -77.001 19.5l-9 147v0z" />
    <glyph glyph-name="uni0438" unicode="&#x438;" 
d="M996 2h-153v662l-432 -662h-174v893h153v-670l426 670h180v-893z" />
    <glyph glyph-name="uni0439" unicode="&#x439;" 
d="M995 0h-153v662l-430 -660h-174v891h153v-670l424 670l180 -2v-891zM498 1192c1.33301 -3.33301 4.00391 -8.83105 8.00391 -16.498s10.167 -15.334 18.5 -23.001s19.166 -14.334 32.499 -20.001s30.333 -8.5 51 -8.5c22 0 40 3 54 9s25.333 13 34 21
s14.667 15.667 18 23s5.66602 12.333 6.99902 15h133c-8 -25.333 -17.833 -48 -29.5 -68s-27.167 -37.667 -46.5 -53c-21.333 -17.333 -47 -29.833 -77 -37.5s-61 -11.5 -93 -11.5c-30.667 0 -61.334 4.5 -92.001 13.5s-57.334 22.167 -80.001 39.5
c-19.333 15.333 -34.333 32.5 -45 51.5s-19.667 40.833 -27 65.5h134z" />
    <glyph glyph-name="uni043A" unicode="&#x43a;" 
d="M378 897v-365h12l354 365h225l-440 -418l479 -479h-221l-397 412h-12v-412h-154v897h154z" />
    <glyph glyph-name="uni043B" unicode="&#x43b;" 
d="M996 0l-150.999 -0.00488281v737h-242c-3.33301 -62.667 -7.33301 -123 -12 -181c-2 -25.333 -4.16699 -51.166 -6.5 -77.499s-4.83301 -52.166 -7.5 -77.499s-5.66699 -49.666 -9 -72.999s-6.66602 -44 -9.99902 -62c-16.667 -89.333 -50.834 -158 -102.501 -206
s-124.834 -72 -219.501 -72v147c46 0 84 12.5 114 37.5s50.667 66.5 62 124.5c5.33301 26.667 10 60.834 14 102.501s7.66699 88.167 11 139.5s6.33301 106.333 9 165s5 118.334 7 179.001h543v-883z" />
    <glyph glyph-name="uni043C" unicode="&#x43c;" 
d="M616 264l179 631h251v-895h-151v729l-205 -729h-74h-73l-205 729v-729h-152v895h252z" />
    <glyph glyph-name="uni043D" unicode="&#x43d;" 
d="M975 895v-895h-152v418h-413v-418h-152v895h152v-336h413v336h152z" />
    <glyph glyph-name="uni043E" unicode="&#x43e;" 
d="M616 127c80 0 143.667 28.667 191 86c48 56 72 133.667 72 233c0 98 -24 176 -72 234c-47.333 57.333 -111 86 -191 86c-79.333 0 -142.666 -28.667 -189.999 -86c-48 -56 -72 -134 -72 -234c0 -99.333 24 -177 72 -233c47.333 -57.333 110.666 -86 189.999 -86z
M1038 446c0 -137.333 -38.668 -248.333 -116.001 -333c-78.667 -84.667 -180.667 -127 -306 -127c-64 0 -121 10.667 -171 32s-94.667 53 -134 95c-77.333 83.333 -116 194.333 -116 333s38.667 250.667 116 336c78.667 84.667 180.334 127 305.001 127
c125.333 0 227.333 -42.333 306 -127c38.667 -43.333 67.667 -92.5 87 -147.5s29 -117.833 29 -188.5z" />
    <glyph glyph-name="uni043F" unicode="&#x43f;" 
d="M976 0h-152v739h-416v-739h-151v887h719v-887z" />
    <glyph glyph-name="uni0440" unicode="&#x440;" 
d="M617 135c77.333 0 138.001 28.002 182.001 84.002s66 134.667 66 236c0 94.667 -22.667 169.667 -68 225c-22.667 28 -48.834 49 -78.501 63s-63.5 21 -101.5 21c-78.667 0 -142 -28 -190 -84c-48 -58 -72 -134.333 -72 -229c0 -48.667 6 -92.334 18 -131.001
s29.333 -72.334 52 -101.001c48 -56 112 -84 192 -84zM355.001 893.002l0.000976562 -109.001c40 40 83.667 70 131 90c48 20.667 100 31 156 31c119.333 0 212.666 -41 279.999 -123c70 -82 105 -193 105 -333c0 -142 -34.333 -253.333 -103 -334
c-34 -41.333 -74.167 -72.166 -120.5 -92.499s-98.833 -30.5 -157.5 -30.5c-63.333 0 -119.333 9.33301 -168 28c-47.333 20.667 -88.333 51.667 -123 93v-404h-150v1184h150z" />
    <glyph glyph-name="uni0441" unicode="&#x441;" 
d="M784 647c-2 37.333 -15.666 66.6689 -40.999 88.002c-24.667 20.667 -58.334 31 -101.001 31c-69.333 0 -121.666 -24.667 -156.999 -74c-16.667 -24.667 -29.334 -55.834 -38.001 -93.501s-13 -82.167 -13 -133.5c0 -113.333 16.333 -197.333 49 -252
c32 -57.333 81 -86 147 -86c48 0 85 13 111 39c26 24 41 62.333 45 115h172c-2 -48 -10.667 -89.833 -26 -125.5s-37.333 -66.5 -66 -92.5c-56.667 -50 -136.667 -75 -240 -75c-110.667 0 -196.667 40.333 -258 121c-32 40.667 -55.667 89 -71 145s-23 120 -23 192
c0 149.333 32.667 262.666 98 339.999c64.667 76.667 159.667 115 285 115c44 0 83.5 -5.5 118.5 -16.5s65.167 -27.833 90.5 -50.5c52 -44 80 -106.333 84 -187h-166z" />
    <glyph glyph-name="uni0442" unicode="&#x442;" 
d="M542 735h-320v146h789v-146h-316v-735h-153v735z" />
    <glyph glyph-name="uni0443" unicode="&#x443;" 
d="M333 893l298.999 -523.999l281 524h167l-557 -1026c-35.333 -66.667 -68 -110.334 -98 -131.001c-14.667 -10.667 -31.667 -18.5 -51 -23.5s-42.666 -7.5 -69.999 -7.5h-82v148h76c12.667 0 25.667 3.33301 39 10c5.33301 3.33301 10.333 7 15 11s8.66699 9 12 15
l184 334l-395 670h180z" />
    <glyph glyph-name="uni0444" unicode="&#x444;" 
d="M693 170c9.33301 -15.333 22.8311 -25.334 40.498 -30.001s35.5 -7 53.5 -7c18.667 0 36.334 6 53.001 18s31.334 30.833 44.001 56.5s22.667 58.5 30 98.5s11 87.667 11 143c0 56.667 -3.66699 105 -11 145s-17.333 72.5 -30 97.5s-27.167 43.333 -43.5 55
s-33.5 17.5 -51.5 17.5c-19.333 0 -37.833 -2.66699 -55.5 -8s-31.167 -17.666 -40.5 -36.999v-549zM539.998 7.99902c-13.333 -6 -27.6689 -10.833 -43.002 -14.5s-31.333 -5.5 -48 -5.5c-95.333 0 -168.166 38.167 -218.499 114.5s-75.5 191.833 -75.5 346.5
c0 150.667 24.333 265 73 343s121.667 117 219 117c16.667 0 33 -1.83301 49 -5.5s30.667 -8.5 44 -14.5v303h153v-303c14.667 7.33301 30 12.5 46 15.5s32 4.5 48 4.5c96.667 0 169.334 -39.333 218.001 -118s73 -192.667 73 -342
c0 -154.667 -24.833 -270.167 -74.5 -346.5s-122.5 -114.5 -218.5 -114.5c-16 0 -31.667 1.83301 -47 5.5s-30.333 8.5 -45 14.5v-303h-153v303zM539.995 716.999c-8.66699 20.667 -22.167 33.666 -40.5 38.999s-37.166 8 -56.499 8c-17.333 0 -34 -5.83301 -50 -17.5
s-30.167 -30 -42.5 -55s-22.166 -57.5 -29.499 -97.5s-11 -88.333 -11 -145c0 -55.333 3.66699 -103 11 -143s17.333 -72.833 30 -98.5s27 -44.5 43 -56.5s33 -18 51 -18c19.333 0 38.166 2.33301 56.499 7s31.166 15.334 38.499 32.001v545z" />
    <glyph glyph-name="uni0445" unicode="&#x445;" 
d="M211 897h190l215 -326l213 326h179l-295 -436l325 -461h-194l-234 338l-233 -338h-182l323 449z" />
    <glyph glyph-name="uni0446" unicode="&#x446;" 
d="M196 893h152v-737h430v737h152v-737h106l-25 -326h-122v180h-693v883z" />
    <glyph glyph-name="uni0447" unicode="&#x447;" 
d="M976 895l-0.00195312 -894.999h-154v371c-22 -12.667 -46.333 -24 -73 -34c-22.667 -8.66699 -48.667 -16.5 -78 -23.5s-60.333 -10.5 -93 -10.5c-58 0 -107.333 6.5 -148 19.5s-73.834 32.5 -99.501 58.5s-44.334 58.167 -56.001 96.5s-17.5 83.166 -17.5 134.499v283
h151v-266c0 -32 3.33301 -59.167 10 -81.5s16.834 -40.333 30.501 -54s30.834 -23.5 51.501 -29.5s45.334 -9 74.001 -9c32.667 0 63.834 3.5 93.501 10.5s56.167 15.167 79.5 24.5c26.667 10.667 51.667 22.667 75 36v369h154z" />
    <glyph glyph-name="uni0448" unicode="&#x448;" 
d="M195 899h151v-743h199v743h151v-743h189v743h153v-889h-843v889z" />
    <glyph glyph-name="uni0449" unicode="&#x449;" 
d="M1078 160l-23 -328h-125v182h-776v881h152v-735h196v735h152v-735h186v735h152v-735h86z" />
    <glyph glyph-name="uni044A" unicode="&#x44a;" 
d="M408 10l0.000976562 725.001h-221v146h371v-318h178c57.333 -0.666992 108.666 -11 153.999 -31c19.333 -8.66699 38.333 -19.834 57 -33.501s35.167 -30.834 49.5 -51.501s26 -45 35 -73s13.5 -60.667 13.5 -98c0 -33.333 -4.5 -62.666 -13.5 -87.999
s-21 -47.333 -36 -66s-31.833 -34.5 -50.5 -47.5s-38 -23.5 -58 -31.5c-46.667 -19.333 -99 -30.333 -157 -33h-322zM730.001 150.001h16h-16zM730.001 156.001c30 1.33301 56.9961 6.99902 80.9961 16.999c10 4 19.833 9.33301 29.5 16s18.334 14.667 26.001 24
s13.834 20.333 18.501 33s7 27.667 7 45c0 16 -2.33301 30.333 -7 43s-10.667 23.5 -18 32.5s-15.666 16.5 -24.999 22.5s-19 11 -29 15c-23.333 8.66699 -49.666 13.334 -78.999 14.001h-176v-262h172z" />
    <glyph glyph-name="uni044B" unicode="&#x44b;" 
d="M182 8l0.00195312 886.999h150l2 -330h180c57.333 -0.666992 108.666 -11 153.999 -31c19.333 -8.66699 38.333 -20 57 -34s35.167 -31.167 49.5 -51.5s26 -44.666 35 -72.999s13.5 -61.5 13.5 -99.5c0 -33.333 -4.5 -62.833 -13.5 -88.5s-21 -48 -36 -67
s-32 -35 -51 -48s-38.5 -23.5 -58.5 -31.5c-46.667 -20 -99.334 -31 -158.001 -33h-324zM506.002 155.999c30.667 1.33301 57.999 6.99805 81.999 16.998c10 4 20 9.33301 30 16s18.833 14.667 26.5 24s13.834 20.333 18.501 33s7 27.667 7 45
c0 32.667 -8.33301 57.834 -25 75.501s-35 30.167 -55 37.5c-23.333 8.66699 -50 13.334 -80 14.001l-176 2v-264h172zM897.001 -0.00292969v895h154v-895h-154z" />
    <glyph glyph-name="uni044C" unicode="&#x44c;" 
d="M245 10l-0.000976562 875.001h150v-326h288c56.667 -0.666992 107.334 -11 152.001 -31c18.667 -8.66699 37.167 -19.834 55.5 -33.501s34.833 -30.667 49.5 -51s26.334 -44.5 35.001 -72.5s13 -60.333 13 -97c0 -33.333 -4.5 -62.5 -13.5 -87.5
s-20.833 -46.667 -35.5 -65s-31.334 -34 -50.001 -47s-37.667 -23.5 -57 -31.5c-46 -19.333 -97.667 -30.333 -155 -33h-432zM676.999 150.001h14h-14zM676.999 156.001c30 1.33301 56.665 6.99902 79.998 16.999c10 4 19.833 9.16699 29.5 15.5s18.167 14.166 25.5 23.499
s13.333 20.333 18 33s7 27.334 7 44.001c0 16 -2.16699 30.333 -6.5 43s-10.166 23.5 -17.499 32.5s-15.666 16.5 -24.999 22.5s-19 11 -29 15c-22.667 8.66699 -48.667 13.334 -78 14.001h-286v-260h282z" />
    <glyph glyph-name="uni044D" unicode="&#x44d;" 
d="M243 680c7.33301 34.667 20.5029 66.167 39.5029 94.5s42.667 52.5 71 72.5s60.333 35.333 96 46s74.167 16 115.5 16c67.333 0 127.333 -10.5 180 -31.5s97 -51.167 133 -90.5s63.5 -87.333 82.5 -144s28.5 -120.667 28.5 -192
c0 -73.333 -9.66699 -138.666 -29 -195.999s-47.333 -105.833 -84 -145.5s-81.334 -69.834 -134.001 -90.501s-112.334 -31 -179.001 -31c-45.333 0 -86.5 5.33301 -123.5 16s-69.167 25.5 -96.5 44.5s-49.5 41.833 -66.5 68.5s-28.167 56 -33.5 88h182
c8.66699 -21.333 24.667 -38.666 48 -51.999s54.666 -20 93.999 -20c38 0 72.167 6.5 102.5 19.5s56.5 31.167 78.5 54.5s39.5 51.166 52.5 83.499s20.5 67.833 22.5 106.5h-365v140h363c-7.33301 69.333 -31.333 124.5 -72 165.5s-100.667 61.5 -180 61.5
s-127.333 -28 -144 -84h-182z" />
    <glyph glyph-name="uni044E" unicode="&#x44e;" 
d="M738 137c51.333 0 91.167 26.167 119.5 78.5s42.5 134.833 42.5 247.5c0 54 -3.5 100 -10.5 138s-17.333 68.667 -31 92s-30.667 40.333 -51 51s-43.5 16 -69.5 16c-23.333 0 -45.5 -5.33301 -66.5 -16s-39.333 -27.834 -55 -51.501s-28 -54.167 -37 -91.5
s-13.5 -82.666 -13.5 -135.999c0 -56.667 4.33301 -105.667 13 -147s20.5 -75.333 35.5 -102s33 -46.5 54 -59.5s44.167 -19.5 69.5 -19.5zM316.001 893l-0.000976562 -360.998h86c6 58.667 17.667 111.167 35 157.5s40.333 85.666 69 117.999s62.334 57 101.001 74
s82.334 25.5 131.001 25.5c51.333 0 97.333 -10.667 138 -32s75.334 -51.833 104.001 -91.5s50.5 -88 65.5 -145s22.5 -121.167 22.5 -192.5s-7.5 -135.333 -22.5 -192s-36.833 -104.834 -65.5 -144.501s-63.334 -70.167 -104.001 -91.5s-86.667 -32 -138 -32
c-97.333 0 -175.333 34.333 -234 103s-93.334 170 -104.001 304h-84v-397h-151v897h151z" />
    <glyph glyph-name="uni044F" unicode="&#x44f;" 
d="M982 879l-0.00292969 -876.999h-149v350h-144l-245 -348h-193l266 354c-23.333 4 -48.166 11.167 -74.499 21.5s-50.833 25.5 -73.5 45.5s-41.5 45.833 -56.5 77.5s-22.5 71.167 -22.5 118.5c0 34.667 4.5 65 13.5 91s20.833 48.333 35.5 67s31.334 34.167 50.001 46.5
s38 22.166 58 29.499c46.667 17.333 99.334 25.333 158.001 24h377zM604.997 733.001c-30.667 1.33301 -57.665 -1.66602 -80.998 -8.99902c-10 -3.33301 -19.833 -7.66602 -29.5 -12.999s-18.167 -12.333 -25.5 -21s-13.333 -19.334 -18 -32.001s-7 -27.334 -7 -44.001
s2.16699 -31.167 6.5 -43.5s10.166 -23 17.499 -32s15.666 -16.333 24.999 -22s19 -10.5 29 -14.5c22.667 -8.66699 49 -13 79 -13h232v244h-228z" />
    <glyph glyph-name="uni0451" unicode="&#x451;" 
d="M785 197l183.999 -0.00195312c-11.333 -66 -45 -117.667 -101 -155s-129.333 -56 -220 -56c-67.333 0 -127.5 10.5 -180.5 31.5s-97.833 51.333 -134.5 91s-64.667 88.334 -84 146.001s-29 123.167 -29 196.5c0 72 9.66699 136.5 29 193.5s47.166 105.167 83.499 144.5
s80.166 69.5 131.499 90.5s109 31.5 173 31.5c58.667 0 111.334 -10.333 158.001 -31s86 -51.5 118 -92.5s56.5 -91.667 73.5 -152s25.5 -130.166 25.5 -209.499v-6h-622v-10c0 -44 6 -83.5 18 -118.5s29 -64.5 51 -88.5s48.833 -42.333 80.5 -55s67.167 -19 106.5 -19
c38.667 0 69.334 6 92.001 18s38.334 28.667 47.001 50zM843.999 558.998c-7.33301 70 -30.001 123.333 -68.001 160s-88.333 55 -151 55c-60.667 0 -111.667 -18.333 -153 -55s-68.666 -90 -81.999 -160h454zM395.998 1198h162v-147h-162v147zM688.998 1198h159v-147h-159
v147z" />
    <glyph glyph-name="quoteleft" unicode="&#x2018;" 
d="M481 1296h271l-41 -618h-189z" />
    <glyph glyph-name="quoteright" unicode="&#x2019;" 
d="M481 1296h271l-41 -618h-189z" />
    <glyph glyph-name="quotedblleft" unicode="&#x201c;" 
d="M974 782h-227l65 514h162v-514zM487 782h-228l66 514h162v-514z" />
    <glyph glyph-name="quotedblright" unicode="&#x201d;" 
d="M259 1296h228l-64 -514h-164v514zM747 1296h227l-65 -514h-162v514z" />
    <glyph glyph-name="dagger" unicode="&#x2020;" 
d="M531 1194h170v-340h304v-135h-304v-719h-170v719h-303v135h303v340z" />
    <glyph glyph-name="periodcentered" unicode="&#x2219;" 
d="M428 676h377v-301h-377v301z" />
    <glyph glyph-name="NULL" horiz-adv-x="0" 
 />
    <glyph glyph-name="nonmarkingreturn" 
 />
  </font>
</defs>
</svg>
